<?xml version="1.0" encoding="UTF-8"?><svg id="Layer_1" xmlns="http://www.w3.org/2000/svg" width="320" height="134" viewBox="0 0 320 134"><path d="m65.01,40.14c.5,17.2-16.9,25.3-33.7,25.8S.51,52.84.01,35.64C-.49,18.44,12.71,4.04,29.51,3.54c16.8-.5,35,19.4,35.5,36.6Z" style="fill:#909;"/><path d="m113.11,62.34c-13.9,10.2-30.3.4-40.3-13.2-9.9-13.6-6.7-32.8,7.2-43,13.9-10.2,33.2-7.4,43.2,6.2,9.9,13.6,3.8,39.9-10.1,50Z" style="fill:#ccc;"/><path d="m97.41,84.84c-3.1-7.5,3.2-14,10.5-17s15.8.6,18.9,8.1-.3,16.1-7.6,19.1-18.7-2.7-21.8-10.2Z" style="fill:#fa0;"/><path d="m60.51,117.34c-15.3-.4-21.6-16.1-21.3-31.1.3-14.9,13-26.8,28.3-26.4,15.3.4,27.4,12.7,27.1,27.7-.4,15-18.8,30.2-34.1,29.8Z" style="fill:#eee;"/><g style="isolation:isolate;"><g style="isolation:isolate;"><path d="m150.48,14.9c.13.17.21.38.24.62.03.24-.13.78-.49,1.63-.36.85-1.14,2.35-2.34,4.5-1.11,1.99-2.39,4.31-3.84,6.96.9,2.61,1.91,5.29,3.03,8.04,1.2,2.96,2.05,5.08,2.56,6.33,1.21,3.01,1.96,4.86,2.25,5.54.28.68.41,1.14.38,1.37-.03.23-.1.44-.22.62-.25.36-.55.54-.9.54-.63,0-1.06-.31-1.3-.92-3.19-9.18-5.53-15.64-7.01-19.38-1.78,3.34-3.32,6.03-4.6,8.06,0,4.43.03,8.02.09,10.76.01.48-.12.85-.39,1.1-.28.25-.58.38-.91.38s-.63-.11-.89-.34c-.26-.22-.38-.75-.35-1.58.03-.83.07-2.03.11-3.58s.09-3.22.13-4.99c.09-3.53.13-6.69.13-9.47s0-4.79-.02-6.04c-.02-1.25-.04-2.39-.07-3.43-.08-1.75-.21-3.64-.4-5.66-.04-.48.08-.83.37-1.07.29-.23.62-.35.99-.35s.7.12,1.01.35c.31.23.45.59.44,1.07-.17,3.85-.25,10.39-.25,19.63,3.65-6.23,6.62-12.05,8.89-17.47.45-1.06.77-1.88.98-2.46.2-.58.41-.94.63-1.09.22-.15.44-.22.66-.22s.43.05.62.15c.19.1.34.23.47.4Z" style="fill:#666;"/><path d="m166.03,51.52c-.9,0-1.35-.68-1.35-2.04,0-.09,0-.34-.02-.76-.13.17-.28.34-.45.54-1.35,1.53-2.82,2.29-4.4,2.29-1.27,0-2.33-.4-3.17-1.21-.87-.84-1.3-1.91-1.3-3.21,0-1.81.7-3.27,2.11-4.38.63-.49,1.34-.87,2.12-1.12s1.67-.38,2.64-.38c.81,0,1.6.13,2.38.4v-2.38c0-1.32-.27-2.31-.82-2.96s-1.11-.99-1.7-.99-1.06.08-1.43.22c-.37.15-.69.37-.98.65-.63.61-.99,1.38-1.08,2.29.04.48-.05.81-.29,1-.24.19-.5.28-.79.28-.81,0-1.2-.54-1.17-1.62.03-1.12.6-2.16,1.71-3.1,1.14-.97,2.41-1.46,3.82-1.46,2.1,0,3.51,1.04,4.25,3.12.25.75.38,1.57.38,2.47v2.31l-.02,3.77v2c0,.9.11,1.62.33,2.18.22.55.33.95.33,1.18s-.11.44-.34.63c-.22.19-.48.28-.76.28Zm-1.44-5.08c-.02-.82-.02-1.83,0-3.03-.64-.22-1.46-.34-2.45-.34-1.33,0-2.43.32-3.28.97-.42.33-.76.73-1.01,1.2-.25.47-.38,1.08-.38,1.82s.25,1.36.76,1.85c.51.49,1.26.74,2.25.74s2.09-.67,3.3-2.02c.34-.37.61-.77.81-1.19Z" style="fill:#666;"/><path d="m174.77,21.67c-.03,1.83-.06,3.8-.08,5.93-.02,2.13-.03,5.41-.03,9.84s.06,8.54.18,12.31c.01.49-.1.87-.35,1.12-.25.25-.54.38-.89.38s-.65-.12-.92-.35c-.27-.23-.38-.76-.34-1.58s.09-2.06.15-3.72c.05-1.65.1-3.45.15-5.38.07-4.25.11-7.81.11-10.68s0-5.02-.01-6.46c0-1.44-.02-2.76-.03-3.98-.03-2.28-.1-4.36-.22-6.24-.03-.48.07-.85.29-1.11.22-.26.51-.39.85-.39s.66.13.96.39c.29.26.42.78.39,1.56-.03.78-.06,1.91-.1,3.39s-.07,3.14-.1,4.96Z" style="fill:#666;"/><path d="m184.32,27.24c.1.24.15.53.12.87-.02.34-.1.62-.24.86s-.29.43-.47.58c-.34.27-.7.4-1.06.4s-.64-.04-.85-.12c-.21-.08-.4-.2-.56-.35-.39-.36-.58-.83-.58-1.42s.15-1,.45-1.26c.49-.43.99-.65,1.48-.65.81,0,1.38.36,1.71,1.08Zm-.94,13.05c-.08,1.51-.11,2.88-.11,4.09s.04,2.47.11,3.76c.07,1.29.08,2.04.01,2.22-.07.19-.16.34-.28.46-.25.25-.53.38-.83.38s-.58-.11-.84-.34-.36-.68-.3-1.37c.16-1.9.25-3.83.25-5.77s-.03-3.52-.08-4.73c-.05-1.21-.09-2.11-.11-2.73-.02-.61,0-1.01.08-1.19.07-.18.18-.32.31-.43.25-.24.54-.36.85-.36s.59.11.83.34.35.58.34,1.06c-.08,1.56-.15,3.09-.22,4.6Z" style="fill:#666;"/><path d="m200.85,40.16l-.04,4.85c0,1.6.05,3.1.16,4.49.03.51-.09.89-.37,1.13-.28.25-.57.37-.88.37s-.58-.12-.83-.35c-.25-.23-.35-.58-.29-1.06.05-.47.1-1.01.13-1.63s.07-1.25.1-1.91c.06-1.32.09-2.41.09-3.27s-.02-1.49-.04-1.88c-.03-.39-.06-.97-.09-1.74-.03-.77-.23-1.5-.61-2.18-.37-.68-.9-1.02-1.57-1.02s-1.26.14-1.75.43-.95.66-1.37,1.12c-.85,1-1.42,2.17-1.71,3.5-.02.42-.02.83-.02,1.24v1.17c0,2.71.03,4.5.09,5.38.06.88,0,1.46-.16,1.75-.17.29-.45.44-.87.44s-.73-.13-.96-.39c-.23-.26-.33-.75-.28-1.45.15-1.93.22-3.92.22-5.95,0-3.49-.05-6.05-.16-7.68-.06-1,.36-1.5,1.26-1.5.46,0,.76.14.89.43.13.28.17.58.13.9-.04.31-.06.58-.07.81s-.01.46-.01.7v.65c.88-1.68,2.06-2.78,3.53-3.3.46-.17.94-.25,1.42-.25s.97.11,1.48.33c.51.22.95.57,1.33,1.07.84,1.08,1.26,2.68,1.26,4.81Z" style="fill:#666;"/><path d="m215.99,51.52c-.9,0-1.35-.68-1.35-2.04,0-.09,0-.34-.02-.76-.13.17-.28.34-.45.54-1.35,1.53-2.82,2.29-4.4,2.29-1.27,0-2.33-.4-3.17-1.21-.87-.84-1.3-1.91-1.3-3.21,0-1.81.7-3.27,2.11-4.38.63-.49,1.34-.87,2.12-1.12.79-.25,1.67-.38,2.64-.38.81,0,1.6.13,2.38.4v-2.38c0-1.32-.27-2.31-.82-2.96s-1.11-.99-1.7-.99-1.06.08-1.43.22c-.37.15-.69.37-.98.65-.63.61-.99,1.38-1.08,2.29.04.48-.05.81-.29,1-.24.19-.5.28-.79.28-.81,0-1.2-.54-1.17-1.62.03-1.12.6-2.16,1.71-3.1,1.14-.97,2.41-1.46,3.82-1.46,2.1,0,3.51,1.04,4.25,3.12.25.75.38,1.57.38,2.47v2.31l-.02,3.77v2c0,.9.11,1.62.33,2.18.22.55.33.95.33,1.18s-.11.44-.34.63c-.22.19-.48.28-.76.28Zm-1.44-5.08c-.02-.82-.02-1.83,0-3.03-.64-.22-1.46-.34-2.45-.34-1.33,0-2.43.32-3.28.97-.42.33-.76.73-1.01,1.2-.25.47-.38,1.08-.38,1.82s.25,1.36.76,1.85,1.26.74,2.25.74,2.09-.67,3.3-2.02c.34-.37.61-.77.81-1.19Z" style="fill:#666;"/><path d="m225.53,48.39c.19.16.35.36.47.6.12.24.18.53.18.88s-.07.64-.2.89c-.13.25-.31.45-.52.59-.4.27-.88.4-1.44.4-.79,0-1.36-.36-1.71-1.08-.11-.24-.16-.52-.16-.83,0-.9.43-1.5,1.3-1.8.24-.08.48-.11.71-.11s.47.04.71.11c.24.08.46.19.65.35Z" style="fill:#666;"/></g></g><g style="isolation:isolate;"><g style="isolation:isolate;"><path d="m232.41,40.74c.52,0,.85.2.99.61s.2,1.07.2,2,.13,1.8.38,2.61.61,1.49,1.06,2.04c.91,1.11,2.18,1.66,3.8,1.66s2.91-.6,3.86-1.79c.96-1.19,1.44-2.9,1.44-5.13,0-2.98-1.27-5.63-3.8-7.95-.72-.66-1.46-1.31-2.21-1.95-.76-.64-1.49-1.31-2.21-2s-1.36-1.45-1.93-2.29c-1.24-1.84-1.86-3.94-1.86-6.29s.71-4.36,2.13-5.84c1.41-1.47,3.17-2.2,5.3-2.2,1.83,0,3.32.61,4.49,1.84,1.3,1.41,1.9,3.35,1.8,5.84-.01.12-.02.25-.01.38,0,.13,0,.39-.04.76-.04.37-.2.71-.47,1-.28.29-.58.44-.9.44s-.6-.15-.82-.44c-.22-.29-.3-.68-.22-1.16.19-1.09.29-1.92.29-2.48s-.1-1.1-.3-1.61-.49-.96-.87-1.35c-.81-.82-1.86-1.24-3.14-1.24-1.42,0-2.58.49-3.48,1.46-.99,1.08-1.48,2.4-1.48,3.98s.17,2.84.52,3.81c.34.96.8,1.84,1.36,2.62s1.2,1.49,1.92,2.13,1.45,1.28,2.19,1.91,1.47,1.28,2.19,1.94c.72.67,1.36,1.4,1.93,2.21,1.24,1.83,1.86,3.93,1.86,6.31,0,2.79-.72,5.01-2.16,6.67-1.42,1.65-3.32,2.47-5.71,2.47-2.22,0-4.02-.85-5.41-2.56-1.32-1.6-1.98-3.41-1.98-5.41s.43-3.01,1.3-3.01Z" style="fill:#909;"/><path d="m252.08,29.76c0-.52.13-.91.38-1.17s.53-.38.83-.38.57.13.81.38.33.64.27,1.17c-.13,1.39-.22,3.01-.25,4.85,1.23,0,2.16-.04,2.79-.11s1.08-.11,1.35-.11c1.02-.03,1.53.34,1.53,1.12,0,.45-.26.76-.79.94-.18.06-.39.08-.63.07s-.5-.03-.77-.03c-.28,0-.55-.01-.82-.01h-1.34c-.43,0-.81,0-1.13.02h-.2v.07c0,6.2.09,9.7.27,10.49s.37,1.36.58,1.71c.37.6.85.9,1.44.9.94,0,1.58-.46,1.91-1.39.13-.75.52-1.12,1.15-1.12.22,0,.42.09.6.28.17.19.26.46.26.82s-.11.75-.34,1.17-.52.79-.9,1.1c-.82.69-1.74,1.03-2.76,1.03-1.86,0-3.14-1.03-3.84-3.08-.25-.75-.38-1.67-.38-2.76v-9.05c-.31.01-.66.04-1.03.07-.46.01-.81-.1-1.04-.35-.23-.25-.35-.51-.35-.79s.12-.52.36-.74c.24-.22.6-.33,1.08-.33l.99.02v-4.78Z" style="fill:#909;"/><path d="m269,49.73c1.71-6.39,2.88-11.15,3.5-14.26.17-.93.62-1.39,1.37-1.39.3,0,.56.1.79.29s.34.43.34.72c0,.46-.11,1-.34,1.62s-.53,1.56-.91,2.84c-.38,1.28-.78,2.65-1.19,4.12-.41,1.47-.83,2.99-1.26,4.57-.43,1.58-.86,3.16-1.29,4.75-1.71,6.18-2.76,9.49-3.17,9.91-.19.21-.47.31-.82.31s-.65-.1-.9-.3c-.25-.2-.37-.44-.37-.71,0-.45.11-.87.34-1.26s.47-.89.73-1.49c.26-.61.54-1.31.84-2.12.51-1.41,1.01-2.95,1.5-4.63-.36-1.15-.73-2.4-1.1-3.73-.43-1.47-.88-2.94-1.35-4.42-1.11-3.61-1.89-5.9-2.34-6.87-.51-1.14-.76-1.91-.76-2.31s.1-.72.31-.95c.21-.23.48-.35.81-.35.64,0,1.09.42,1.35,1.27.25.85.52,1.75.79,2.7.27.95.54,1.92.8,2.9.26.98.52,1.95.77,2.91s.49,1.87.72,2.73c.22.86.43,1.64.61,2.35.09.3.17.58.22.83Z" style="fill:#909;"/><path d="m281.89,21.67c-.03,1.83-.06,3.8-.08,5.93s-.03,5.41-.03,9.84.06,8.54.18,12.31c.01.49-.1.87-.35,1.12s-.54.38-.89.38-.65-.12-.92-.35c-.27-.23-.38-.76-.34-1.58s.09-2.06.15-3.72c.05-1.65.1-3.45.15-5.38.08-4.25.11-7.81.11-10.68s0-5.02-.01-6.46c0-1.44-.02-2.76-.03-3.98-.03-2.28-.1-4.36-.22-6.24-.03-.48.07-.85.29-1.11.22-.26.51-.39.85-.39s.66.13.96.39c.29.26.42.78.39,1.56s-.06,1.91-.1,3.39c-.04,1.48-.07,3.14-.1,4.96Z" style="fill:#909;"/><path d="m289.1,43.3c.03,2.07.4,3.65,1.12,4.74.78,1.17,1.88,1.75,3.3,1.75,1.3,0,2.25-.64,2.85-1.93.37-.84.84-1.26,1.39-1.26.25,0,.47.08.64.25.17.17.25.45.24.86-.01.41-.16.86-.44,1.34-.28.48-.66.91-1.16,1.28-1.08.84-2.37,1.26-3.89,1.26-1.63,0-3.04-.7-4.22-2.09-1.24-1.47-1.86-3.21-1.86-5.23s.18-3.67.53-4.93c.35-1.27.82-2.32,1.4-3.16,1.14-1.69,2.56-2.54,4.27-2.54,2.19,0,3.72.86,4.6,2.58.61,1.2.94,2.96.99,5.28.01.66-.09,1.1-.31,1.33s-.68.34-1.37.34l-8.09.13Zm7.7-1.95c.03-2.61-.52-4.39-1.64-5.35-.45-.4-1-.61-1.64-.61s-1.18.12-1.59.36-.79.56-1.11.97c-.32.4-.59.87-.81,1.38-.22.52-.39,1.04-.53,1.58-.13.57-.23,1.13-.29,1.68l3.08.13c2.01,0,3.52-.05,4.54-.16Z" style="fill:#909;"/></g></g><g style="isolation:isolate;"><g style="isolation:isolate;"><path d="m135.96,83.5l.03-6.61c0-3.75-.12-6.93-.36-9.53-.03-.33.05-.58.25-.74.2-.16.42-.24.68-.24s.49.08.7.24c.21.16.3.52.28,1.06-.02.55-.04,1.24-.07,2.08-.03.84-.05,1.73-.07,2.66-.04,1.88-.06,3.57-.06,5.09s0,2.56,0,3.12c0,.56.01,1.1.02,1.62.05,2.77.21,4.53.47,5.27.26.74.56,1.31.91,1.7.69.79,1.57,1.19,2.66,1.19s2.04-.41,2.77-1.23c.75-.85,1.19-2.05,1.31-3.58.11-1.88.17-3.38.17-4.52s0-2.12,0-2.95c0-.83-.02-1.76-.04-2.79-.08-3-.17-5.69-.25-8.08-.01-.33.08-.58.27-.73s.4-.23.64-.23.46.08.66.23c.2.16.29.4.28.73-.04,1.55-.07,3.08-.07,4.59,0,1.51-.01,3.01-.02,4.5-.02,3.62-.09,6.21-.2,7.79-.11,1.58-.29,2.77-.52,3.57-.23.8-.57,1.52-1.01,2.14-.98,1.4-2.3,2.09-3.95,2.09-2.74,0-4.45-1.52-5.12-4.55-.22-.95-.33-2-.33-3.17v-.73Z" style="fill:#666;"/><path d="m151.58,66.62c0-.68.26-1.02.78-1.02s.87.34,1.07,1.03.45,1.44.73,2.24c.28.81.58,1.65.91,2.52.73,1.98,1.33,3.67,1.8,5.08.38-1.11.85-2.43,1.42-3.94,1.19-3.19,1.85-5.05,1.98-5.59.21-.84.56-1.27,1.06-1.27.2,0,.37.08.52.23.15.15.23.35.23.59s-.1.59-.29,1.04c-.19.45-.45,1.05-.78,1.8s-.67,1.57-1.04,2.47c-.83,2.03-1.65,4.25-2.45,6.64,1.95,5.85,3.34,9.75,4.17,11.67.16.38.17.68.03.91-.34.59-.75.73-1.2.41-.14-.09-.25-.28-.34-.57-.09-.29-.23-.7-.41-1.25-.18-.55-.37-1.14-.57-1.79-.2-.65-.42-1.33-.65-2.04-.23-.71-.46-1.43-.69-2.15-.47-1.46-.84-2.62-1.11-3.5-.28.88-.55,1.73-.81,2.58-.32,1.03-.64,2.02-.94,2.97-.81,2.48-1.34,4.02-1.57,4.63s-.44.99-.61,1.15-.34.23-.52.23-.33-.09-.46-.26c-.14-.17-.2-.36-.2-.55s.04-.4.11-.59c1-2.36,2.44-6.41,4.31-12.14-1.05-3.18-2.49-6.79-4.31-10.83-.11-.25-.17-.48-.17-.7Z" style="fill:#666;"/><path d="m168.05,87.1c-.33,1.3-.65,2.5-.95,3.62s-.53,1.95-.7,2.49-.34.88-.52,1c-.17.12-.34.18-.5.18s-.31-.07-.44-.2c-.13-.14-.2-.29-.2-.48s.08-.5.24-.95c.16-.45.4-1.2.72-2.24.32-1.05.65-2.2,1.01-3.46.35-1.26.72-2.59,1.09-4,.37-1.41.74-2.83,1.1-4.27.36-1.44.72-2.85,1.05-4.25.34-1.4.65-2.71.95-3.95.71-2.96,1.17-4.94,1.39-5.95.07-.32.2-.56.39-.72s.37-.23.55-.23.35.07.5.2c.15.14.23.29.23.45,0,.3-.08.66-.24,1.08-.16.42-.39,1.11-.67,2.09-.29.97-.59,2.06-.91,3.26-.32,1.2-.65,2.48-.99,3.84-.34,1.37-.69,2.76-1.04,4.18-.35,1.42-.7,2.84-1.05,4.25-.35,1.41-.69,2.77-1.02,4.06Z" style="fill:#666;"/><path d="m177.49,83.5l.03-6.61c0-3.75-.12-6.93-.36-9.53-.03-.33.05-.58.25-.74.2-.16.42-.24.68-.24s.49.08.7.24c.21.16.3.52.28,1.06-.02.55-.04,1.24-.07,2.08-.03.84-.05,1.73-.07,2.66-.04,1.88-.06,3.57-.06,5.09s0,2.56,0,3.12c0,.56.01,1.1.02,1.62.05,2.77.21,4.53.47,5.27.26.74.56,1.31.91,1.7.69.79,1.57,1.19,2.66,1.19s2.04-.41,2.77-1.23c.75-.85,1.19-2.05,1.31-3.58.11-1.88.17-3.38.17-4.52s0-2.12,0-2.95c0-.83-.02-1.76-.04-2.79-.08-3-.17-5.69-.25-8.08-.01-.33.08-.58.27-.73s.4-.23.64-.23.46.08.66.23c.2.16.29.4.28.73-.04,1.55-.07,3.08-.07,4.59,0,1.51-.01,3.01-.02,4.5-.02,3.62-.09,6.21-.2,7.79-.12,1.58-.29,2.77-.52,3.57-.23.8-.57,1.52-1.01,2.14-.98,1.4-2.3,2.09-3.95,2.09-2.74,0-4.45-1.52-5.12-4.55-.22-.95-.33-2-.33-3.17v-.73Z" style="fill:#666;"/><path d="m195.68,69.58c-.02.44-.03.94-.03,1.51,0,.57,0,2.85,0,6.85s.06,8.21.19,12.62c0,.33-.09.59-.29.77-.2.18-.42.27-.64.27s-.42-.08-.59-.23-.25-.5-.23-1.05c.02-.54.04-1.29.06-2.25.02-.96.04-1.98.06-3.06.04-2.15.06-4.15.06-6.01s0-3.31,0-4.34c0-1.04-.02-1.99-.04-2.87-.03-1.94-.09-3.48-.17-4.64-.03-.33.03-.58.18-.74.15-.16.35-.24.59-.24s.46.08.67.24c.21.16.3.44.29.82-.02.39-.03.77-.05,1.14s-.03.78-.05,1.22Z" style="fill:#666;"/><path d="m217.94,72.19c.33,1.27.5,2.67.5,4.21s-.13,2.96-.39,4.28c-.26,1.32-.62,2.54-1.09,3.66-.47,1.12-1.03,2.13-1.68,3.03-.65.9-1.37,1.67-2.16,2.3-1.64,1.31-3.41,1.97-5.33,1.97-.3,0-.5-.1-.59-.29-.09-.19-.13-.42-.13-.7v-1.34c0-.65,0-1.43,0-2.35,0-.92-.01-1.95-.02-3.08,0-1.13-.02-2.3-.03-3.52-.02-1.21-.03-2.44-.05-3.67s-.03-2.41-.05-3.54c-.06-2.33-.14-4.17-.22-5.52-.05-.71.26-1.1.94-1.19,1-.15,1.82-.22,2.47-.22,4.19,0,6.8,1.98,7.84,5.95Zm-9.31,17.98c1.18-.04,2.35-.55,3.52-1.52,2.17-1.8,3.61-4.49,4.34-8.06.25-1.23.38-2.62.38-4.18s-.19-2.91-.57-4.06c-.38-1.15-.87-2.07-1.48-2.76-1.14-1.29-2.6-1.94-4.39-1.94-.78,0-1.42.08-1.91.25-.08,1.07-.12,2.58-.12,4.52,0,2.32,0,4.1.02,5.33,0,1.23.02,2.43.04,3.61.02,1.18.03,2.3.05,3.38s.03,2.04.05,2.9c.03,1.07.06,1.92.08,2.53Z" style="fill:#666;"/><path d="m222.5,86.2c.02,1.44.28,2.54.78,3.3.54.81,1.31,1.22,2.3,1.22.91,0,1.57-.45,1.98-1.34.26-.58.58-.88.97-.88.18,0,.33.06.45.17.12.12.17.32.16.6-.01.29-.11.6-.3.93-.19.33-.46.63-.8.89-.75.58-1.65.88-2.7.88-1.14,0-2.12-.48-2.94-1.45-.87-1.02-1.3-2.23-1.3-3.64s.12-2.55.37-3.43c.24-.88.57-1.61.98-2.2.79-1.18,1.78-1.77,2.97-1.77,1.52,0,2.59.6,3.2,1.8.43.83.66,2.06.69,3.67,0,.46-.06.77-.22.92s-.47.23-.95.23l-5.62.09Zm5.36-1.36c.02-1.81-.36-3.05-1.14-3.72-.31-.28-.69-.42-1.14-.42s-.82.08-1.11.25c-.29.17-.55.39-.77.67-.22.28-.41.6-.56.96-.15.36-.27.73-.37,1.1-.09.4-.16.79-.2,1.17l2.14.09c1.4,0,2.45-.04,3.16-.11Z" style="fill:#666;"/><path d="m233.02,87.64c.48,0,.69.43.64,1.3-.04.51.16.95.59,1.31.42.35.96.53,1.62.53s1.2-.18,1.6-.55c.41-.36.61-.82.61-1.37s-.14-.97-.41-1.28c-.27-.31-.61-.58-1.02-.83-.41-.24-.84-.48-1.31-.7-.47-.22-.91-.48-1.31-.77-.95-.7-1.42-1.56-1.42-2.58,0-.88.3-1.62.91-2.2.65-.63,1.48-.95,2.52-.95.88,0,1.62.26,2.22.77.63.54.95,1.25.95,2.11.06.43,0,.74-.17.95-.18.2-.38.3-.62.3s-.42-.1-.56-.31c-.14-.21-.2-.45-.19-.73s0-.53-.05-.74c-.05-.21-.14-.41-.27-.59-.3-.4-.79-.59-1.47-.59-.54,0-.94.13-1.19.39-.43.45-.64.92-.64,1.41s.13.89.41,1.21c.27.32.61.6,1.02.86.41.26.84.5,1.31.73.47.23.91.49,1.31.78.95.68,1.42,1.53,1.42,2.55s-.32,1.77-.97,2.38c-.68.63-1.62.95-2.83.95-1.04,0-1.91-.31-2.61-.92-.72-.61-1.05-1.38-.98-2.31.04-.72.34-1.08.89-1.08Z" style="fill:#666;"/><path d="m245.3,75.03c.07.17.1.37.09.6s-.07.44-.16.6c-.09.17-.2.3-.33.41-.24.19-.48.28-.73.28s-.45-.03-.59-.09c-.15-.06-.28-.14-.39-.24-.27-.25-.41-.58-.41-.98s.1-.7.31-.88c.34-.3.69-.45,1.03-.45.56,0,.96.25,1.19.75Zm-.66,9.08c-.05,1.05-.08,2-.08,2.84s.03,1.72.08,2.62c.05.9.05,1.42,0,1.55-.05.13-.11.24-.2.32-.18.18-.37.27-.58.27s-.4-.08-.59-.23c-.18-.16-.25-.47-.21-.95.11-1.32.17-2.66.17-4.02s-.02-2.45-.05-3.29c-.04-.84-.06-1.47-.08-1.9-.02-.43,0-.7.05-.83.05-.12.12-.22.22-.3.18-.17.38-.25.59-.25s.41.08.58.23c.17.16.24.4.23.73-.05,1.08-.1,2.15-.16,3.2Z" style="fill:#666;"/><path d="m251.08,90.98c.15.01.42.02.81.02h.88c1.85,0,3.13.77,3.84,2.31.24.5.36,1.08.36,1.73s-.1,1.24-.29,1.75c-.19.51-.48.95-.85,1.33-.79.76-1.94,1.14-3.44,1.14-1.2,0-2.17-.31-2.91-.92-.75-.64-1.12-1.52-1.12-2.66,0-1.01.27-1.92.81-2.73.19-.29.38-.53.59-.72-.43-.1-.77-.33-1.03-.67-.33-.44-.5-.89-.5-1.36s.05-.86.14-1.16c.09-.31.22-.59.39-.85.26-.41.55-.74.88-1.02-.5-.35-.9-.84-1.19-1.45-.23-.49-.34-1.08-.34-1.77s.12-1.32.35-1.89c.23-.57.55-1.04.95-1.42.4-.38.85-.67,1.36-.87.51-.2,1.06-.3,1.66-.31.42,0,.82.03,1.22.12.05-.7.33-1.44.84-2.23.73-1.11,1.56-1.67,2.5-1.67.49,0,.73.26.73.77,0,.31-.23.58-.69.8-.72.16-1.31.54-1.77,1.14-.37.47-.57,1.01-.61,1.61.28.16.54.35.77.58.77.77,1.16,1.86,1.16,3.27,0,1.12-.37,2.06-1.09,2.81-.81.83-1.88,1.25-3.2,1.25-.68,0-1.28-.09-1.8-.28-.21.27-.39.63-.55,1.08-.21.59-.31,1.02-.31,1.28,0,.68.48,1.02,1.45,1.02Zm-1.56-7.05c0,.85.25,1.53.74,2.02.49.5,1.08.74,1.77.74s1.21-.08,1.58-.25c.37-.17.67-.39.91-.67.48-.54.72-1.28.72-2.22,0-1.33-.58-2.21-1.75-2.62-.34-.12-.74-.19-1.2-.19s-.86.1-1.21.29c-.35.19-.65.44-.88.74-.46.58-.69,1.3-.69,2.16Zm1.42,8.41c-.16.09-.3.25-.44.47-.49.75-.73,1.59-.73,2.52,0,1.78,1.02,2.67,3.05,2.67,1.84,0,2.77-.95,2.77-2.84,0-.83-.22-1.52-.66-2.06-.4-.5-.85-.75-1.37-.76-.52,0-1.07,0-1.66,0-.32,0-.64,0-.95,0Z" style="fill:#666;"/><path d="m267.43,84.01l-.03,3.38c0,1.12.04,2.16.11,3.12.02.35-.07.62-.26.79-.19.17-.4.26-.61.26s-.41-.08-.58-.24c-.17-.16-.24-.41-.2-.73.04-.33.07-.71.09-1.13.03-.43.05-.87.07-1.33.04-.92.06-1.67.06-2.27s-.01-1.03-.03-1.3c-.02-.27-.04-.67-.06-1.21-.02-.54-.16-1.04-.42-1.52-.26-.47-.62-.71-1.09-.71s-.88.1-1.22.3c-.34.2-.66.46-.95.78-.59.7-.99,1.51-1.19,2.44-.01.29-.02.58-.02.86v.81c0,1.89.02,3.13.06,3.74.04.61,0,1.02-.11,1.22-.12.2-.32.3-.6.3s-.51-.09-.67-.27c-.16-.18-.23-.52-.2-1.01.1-1.34.16-2.72.16-4.14,0-2.43-.04-4.21-.11-5.34-.04-.7.25-1.05.88-1.05.32,0,.53.1.62.3.09.2.12.41.09.62-.03.22-.04.41-.05.56,0,.16,0,.32,0,.48v.45c.61-1.17,1.43-1.93,2.45-2.3.32-.11.65-.17.98-.17s.68.08,1.03.23c.35.15.66.4.92.74.58.75.88,1.87.88,3.34Z" style="fill:#666;"/></g></g></svg>