<?xml version="1.0" encoding="utf-8"?>
<!-- Generator: Adobe Illustrator 12.0.0, SVG Export Plug-In . SVG Version: 6.00 Build 51448)  -->
<!DOCTYPE svg PUBLIC "-//W3C//DTD SVG 1.1//EN" "http://www.w3.org/Graphics/SVG/1.1/DTD/svg11.dtd" [
	<!ENTITY ns_svg "http://www.w3.org/2000/svg">
	<!ENTITY ns_xlink "http://www.w3.org/1999/xlink">
]>
<svg  version="1.1" id="Layer_1" xmlns="&ns_svg;" xmlns:xlink="&ns_xlink;" width="268.521" height="117.393"
	 viewBox="0 0 268.521 117.393" overflow="visible" enable-background="new 0 0 268.521 117.393" xml:space="preserve">
<path fill="#990099" d="M64.012,41.174c-1.796,17.134-20.08,22.788-36.805,21.036C10.482,60.456-1.62,45.145,0.177,28.013
	C1.973,10.879,16.986-1.588,33.712,0.165C50.436,1.918,65.806,24.043,64.012,41.174z"/>
<path fill="#CCCCCC" d="M108.739,69.614c-15.142,8.212-30.148-3.662-38.167-18.445c-8.017-14.78-2.243-33.421,12.901-41.637
	c15.143-8.213,33.917-2.889,41.936,11.894C133.425,36.208,123.881,61.398,108.739,69.614z"/>
<path fill="#FFAA00" d="M90.148,89.79c-2.08-7.859,5.033-13.415,12.703-15.446c7.668-2.028,15.572,2.693,17.652,10.548
	c2.08,7.857-2.45,15.873-10.12,17.903C102.714,104.827,92.228,97.644,90.148,89.79z"/>
<path fill="#EEEEEE" d="M49.201,117.099c-15.111-2.397-19.266-18.874-16.928-33.623c2.339-14.751,16.483-24.768,31.593-22.372
	c15.111,2.395,25.463,16.294,23.125,31.045C84.651,106.901,64.312,119.495,49.201,117.099z"/>
<g>
	<path fill="#666666" d="M157.658,93.608c0.262-1.592,0.642-5.299,0.45-6.154l0.572,0.688c-3.472-0.237-4.92,0.189-5.966,0.189
		c-0.998,0-1.451-0.642-1.451-1.306c0-0.644,0.478-1.261,1.451-1.119c0.999,0.118,1.997,0.096,2.874,0.096
		c1.807,0,2.663-0.262,3.541-0.262c0.688,0,1.236,0.333,1.236,1.402c0,9.934-3.161,16.017-8.343,16.017
		c-6.227,0-9.172-6.274-9.172-20.627c0-11.645,3.041-18.298,9.623-18.655c4.78-0.261,7.604,2.828,7.604,11.075
		c0.026,1.046-0.401,1.569-1.069,1.569c-0.618,0-1.234-0.455-1.234-1.382c0-7.15-2.093-9.219-5.441-8.982
		c-5.206,0.383-7.153,7.558-7.153,16.826c0,15.044,3.277,17.799,7.057,17.799C154.995,100.785,156.874,98.338,157.658,93.608z"/>
	<path fill="#999999" d="M166.118,93.375c0.791,0.022,2.267,0.149,3.571,0.149c1.025,0,4.407-0.085,5.325-0.296l-1.027,0.62
		c0.107-2.804-0.406-6.14-3.229-6.14c-3.146,0-4.063,4.514-4.087,7.038c-0.042,4.405,1.521,6.673,4.215,6.673
		c1.453,0,2.224-0.793,2.714-1.84c0.345-0.772,0.686-1.198,1.327-1.198c0.471,0,0.857,0.322,0.835,0.898
		c-0.044,1.968-2.267,3.849-5.219,3.849c-2.994,0-5.795-2.821-5.795-7.42c0-6.481,2.886-9.668,5.902-9.668
		c4.644,0,5.264,4.021,5.325,7.485c0.022,1.263-0.277,1.584-1.604,1.584c-2.438,0-6.694,0.106-8.255,0.128V93.375L166.118,93.375z"
		/>
	<path fill="#999999" d="M179.379,94.251c0-5.345,2.695-8.277,6.352-8.277c3.08,0,5.541,2.824,5.541,8.044
		c0,5.944-2.932,9.025-6.076,9.066C181.902,103.15,179.379,100.283,179.379,94.251z M181.347,94.766
		c0,4.513,1.519,6.501,3.849,6.501c2.717,0,4.106-3.528,4.106-7.035c0-3.637-1.413-6.523-3.743-6.523
		C182.842,87.708,181.347,90.637,181.347,94.766z"/>
	<path fill="#999999" d="M198.071,95.492c-0.065,0.664-0.087,1.027-0.087,1.584c0,1.348,0.065,2.887,0.172,4.298
		c0.063,0.941-0.601,1.433-1.241,1.433c-0.558,0-1.133-0.449-1.048-1.326c0.149-1.816,0.235-4.854,0.235-7.549
		c0-2.18-0.066-4.384-0.15-6.115c-0.045-0.879,0.619-1.326,1.175-1.326c0.557,0,1.155,0.428,1.091,1.326
		c-0.063,0.875-0.298,2.437-0.533,5.943l-0.172-0.726c1.221-3.766,4.257-6.908,5.946-6.908c0.769,0,1.091,0.492,1.091,1.067
		c0,0.515-0.235,1.178-1.155,1.327C201.707,88.82,198.391,92.329,198.071,95.492z"/>
	<path fill="#999999" d="M217.555,91.985c0,2.845-2.032,5.561-5.882,5.561c-3.015,0-5.71-1.755-5.71-5.304
		c0-4.063,2.803-6.204,5.817-6.247C215.226,85.932,217.555,88.093,217.555,91.985z M212.401,111.384
		c2.717,0,3.785-1.604,3.785-3.894c0-2.416-1.455-3.826-2.781-3.849c-1.39-0.022-3.144,0.086-4.556-0.087
		c-1.774-0.105-2.716-1.476-2.716-3.144c0-1.796,1.135-3.357,2.418-4.215l0.941,0.621c-0.107,0.108-1.454,2.137-1.454,3.572
		c0,0.939,0.747,1.39,1.989,1.39c1.583,0.086,1.496-0.043,3.422,0.064c1.731,0.085,4.643,1.794,4.643,5.56
		c0,3.423-2.097,5.71-6.268,5.71c-3.208,0-5.517-1.73-5.517-4.896c0-2.867,1.815-5.325,3.291-5.325c1.563,0,1.884,0.599,0.749,0.599
		c-0.578,0-2.117,1.41-2.117,4.233C208.23,109.908,209.449,111.384,212.401,111.384z M215.715,91.624
		c0-2.46-1.688-3.853-3.955-3.853c-2.652,0-3.872,2.332-3.872,4.172c0,2.586,1.454,3.977,3.808,3.977
		C214.454,95.919,215.715,93.996,215.715,91.624z M213.555,87.173c-0.342-2.331,1.904-6.352,4.514-6.352
		c0.576,0,1.047,0.235,1.047,1.049c0,0.448-0.32,0.79-0.939,1.092c-1.818,0.385-3.549,2.181-3.229,4.746L213.555,87.173z"/>
	<path fill="#999999" d="M223.073,82.533c-0.835,0-1.713-0.622-1.713-1.795c0-1.179,0.964-1.819,1.84-1.819
		c0.835,0,1.818,0.641,1.755,1.819C224.847,82.105,223.843,82.533,223.073,82.533z M222.88,102.765
		c-0.577,0-1.197-0.428-1.111-1.326c0.128-1.688,0.257-4.299,0.257-6.779c0-2.376-0.129-4.771-0.193-6.673
		c-0.043-0.876,0.643-1.326,1.221-1.326c0.556,0,1.11,0.429,1.09,1.326c-0.128,2.951-0.319,5.838-0.319,8.704
		c0,1.519,0.104,3.165,0.191,4.642C224.057,102.275,223.437,102.765,222.88,102.765z"/>
	<path fill="#999999" d="M230.217,93.375c0.79,0.022,2.267,0.149,3.571,0.149c1.025,0,4.406-0.085,5.325-0.296l-1.027,0.62
		c0.106-2.804-0.406-6.14-3.229-6.14c-3.146,0-4.064,4.514-4.086,7.038c-0.043,4.405,1.519,6.673,4.215,6.673
		c1.452,0,2.222-0.793,2.717-1.84c0.34-0.772,0.681-1.198,1.322-1.198c0.472,0,0.857,0.322,0.836,0.898
		c-0.042,1.968-2.268,3.849-5.22,3.849c-2.994,0-5.794-2.821-5.794-7.42c0-6.481,2.887-9.668,5.902-9.668
		c4.643,0,5.262,4.021,5.325,7.485c0.024,1.263-0.278,1.584-1.603,1.584c-2.438,0-6.695,0.106-8.256,0.128V93.375L230.217,93.375z"
		/>
	<path fill="#999999" d="M248.844,102.701c-0.363,0-0.919-0.172-1.048-0.6c-1.561-4.706-2.715-9.218-4.66-13.387
		c-0.171-0.406-0.279-0.793-0.279-1.114c0-0.791,0.471-1.24,1.049-1.24c0.491,0,1.153,0.363,1.41,1.218
		c1.435,4.728,3.124,11.485,3.894,13.475h-0.556c1.133-4.234,2.353-6.864,3.763-13.452c0.172-0.749,0.579-1.196,1.241-1.196
		c0.578,0,1.049,0.341,1.049,1.134c0,0.298-0.105,0.747-0.256,1.133c-1.582,4-3.271,9.066-4.492,13.301
		C249.828,102.421,249.315,102.701,248.844,102.701z"/>
	<path fill="#999999" d="M261.549,103.084c-2.373,0-4.254-1.688-4.254-4.213c0-3.677,3.249-5.603,6.308-5.603
		c1.153,0,2.416,0.32,2.952,0.555c0,0.322,0.13,1.435,0.13,1.775c-0.386-0.235-1.605-0.577-3.082-0.577
		c-2.181,0-4.276,1.263-4.276,3.635c0,1.626,1.068,2.632,2.631,2.632c2.461,0,4.276-2.886,4.429-3.999
		c0,0.299,0.127,2.246,0.127,2.566C265.783,101.139,263.817,103.084,261.549,103.084z M266.104,91.388
		c0-2.524-1.198-3.766-2.651-3.766c-1.54,0-2.867,1.176-3.059,3.015c0.086,0.919-0.491,1.219-1.025,1.219
		c-0.706,0-1.134-0.532-1.111-1.54c0.063-2.073,2.524-4.343,5.261-4.343c2.246,0,4.404,1.455,4.404,5.604
		c0,2.695-0.021,4.771-0.021,7.422c0,1.967,0.621,2.417,0.621,3.122c0,0.534-0.513,0.942-1.049,0.942
		c-1.088,0-1.282-0.942-1.282-1.947c0-0.278-0.127-2.224-0.084-6.501v-3.228H266.104z"/>
</g>
<g>
	<path fill="#666666" d="M166.384,72.451c-0.034,0.347-0.046,0.537-0.046,0.829c0,0.703,0.033,1.507,0.09,2.244
		c0.034,0.492-0.313,0.747-0.647,0.747c-0.291,0-0.592-0.233-0.547-0.692c0.078-0.948,0.123-2.534,0.123-3.941
		c0-1.14-0.035-2.29-0.077-3.195c-0.022-0.457,0.322-0.692,0.614-0.692c0.289,0,0.603,0.224,0.568,0.692
		c-0.033,0.46-0.156,1.272-0.279,3.104l-0.09-0.378c0.638-1.967,2.224-3.609,3.104-3.609c0.402,0,0.57,0.257,0.57,0.56
		c0,0.267-0.122,0.613-0.601,0.692C168.282,68.966,166.551,70.798,166.384,72.451z"/>
	<path fill="#666666" d="M172.728,76.417c-1.241,0-2.223-0.882-2.223-2.199c0-1.922,1.698-2.928,3.296-2.928
		c0.602,0,1.262,0.168,1.541,0.291c0,0.169,0.068,0.749,0.068,0.928c-0.203-0.123-0.84-0.303-1.609-0.303
		c-1.141,0-2.234,0.661-2.234,1.9c0,0.849,0.557,1.374,1.373,1.374c1.284,0,2.233-1.507,2.312-2.089
		c0,0.156,0.068,1.172,0.068,1.339C174.938,75.4,173.911,76.417,172.728,76.417z M175.106,70.307c0-1.319-0.626-1.967-1.385-1.967
		c-0.804,0-1.496,0.615-1.596,1.576c0.043,0.48-0.258,0.635-0.536,0.635c-0.371,0-0.594-0.278-0.581-0.804
		c0.034-1.084,1.317-2.267,2.75-2.267c1.171,0,2.298,0.758,2.298,2.927c0,1.406-0.011,2.488-0.011,3.876
		c0,1.027,0.322,1.263,0.322,1.629c0,0.279-0.266,0.492-0.546,0.492c-0.568,0-0.67-0.492-0.67-1.015
		c0-0.146-0.066-1.163-0.046-3.397V70.307L175.106,70.307z"/>
	<path fill="#666666" d="M179.464,67.772c0.299,0,0.557,0.234,0.523,0.771c-0.021,0.268-0.088,0.926-0.055,1.508l-0.235-0.225
		c0.569-1.473,1.833-2.333,3.05-2.333c1.442,0,2.235,1.071,2.235,2.903c0,4.044-3.228,5.896-5.016,6.008
		c-0.023,0.503-0.034,0.993-0.034,1.464c0,1.631,0.146,2.981,0.168,3.473c0.012,0.38-0.38,0.603-0.704,0.603
		c-0.29,0-0.593-0.201-0.569-0.691c0.056-0.727,0.124-2.771,0.124-6.076c0-1.943-0.023-4.199-0.124-6.588
		C178.803,68.096,179.072,67.772,179.464,67.772z M179.999,75.68l-0.236-0.313c0.874,0.313,4.189-0.962,4.189-4.938
		c0-1.283-0.615-1.966-1.372-1.966c-1.419,0-2.492,1.632-2.637,2.815C179.933,72.653,179.875,74.227,179.999,75.68z"/>
	<path fill="#666666" d="M187.785,76.171c-0.337,0-0.571-0.224-0.571-0.692c0.056-5.295,0.158-8.923,0.158-12.397
		c0-2.313-0.033-3.352-0.124-5.942c-0.033-0.47,0.336-0.705,0.658-0.705c0.323,0,0.593,0.235,0.582,0.705
		c-0.091,2.055-0.213,8.277-0.246,12.889l-0.234,0.045c0.569-1.383,1.439-2.524,2.793-2.524c1.05,0,2.065,0.816,2.065,3.083v1.811
		c0,0.959,0,2.009,0.089,2.992c0.033,0.479-0.346,0.737-0.636,0.737c-0.356,0-0.635-0.224-0.594-0.692
		c0.113-1.149,0.125-2.065,0.125-2.961c0-0.668-0.047-1.284-0.058-1.875c-0.022-1.218-0.347-2.055-1.104-2.055
		c-1.195,0-2.167,1.563-2.392,2.938c0.021,1.641,0.067,2.959,0.146,3.908C188.476,75.913,188.185,76.171,187.785,76.171z"/>
	<path fill="#666666" d="M196.451,65.683c-0.436,0-0.894-0.322-0.894-0.938c0-0.613,0.502-0.949,0.962-0.949
		c0.434,0,0.948,0.336,0.916,0.949C197.378,65.461,196.854,65.683,196.451,65.683z M196.351,76.25c-0.3,0-0.627-0.224-0.582-0.692
		c0.066-0.882,0.135-2.244,0.135-3.54c0-1.24-0.068-2.49-0.1-3.484c-0.023-0.458,0.336-0.693,0.637-0.693
		c0.291,0,0.581,0.225,0.569,0.693c-0.065,1.54-0.168,3.048-0.168,4.545c0,0.795,0.058,1.652,0.103,2.424
		C196.965,75.992,196.64,76.25,196.351,76.25z"/>
	<path fill="#666666" d="M202.629,68.453c-1.229,0-1.945,1.743-1.945,3.507c0,2.534,1.005,3.53,2.01,3.53
		c0.716,0,1.186-0.627,1.396-1.396c0.124-0.413,0.337-0.559,0.547-0.559c0.247,0.012,0.48,0.213,0.46,0.559
		c-0.122,1.373-1.172,2.312-2.593,2.312c-1.463,0-2.828-1.443-2.828-4.334c0-3.028,1.399-4.556,2.951-4.578
		c1.374-0.023,2.489,0.948,2.489,2.792c0,0.479-0.188,0.736-0.545,0.736c-0.347,0-0.581-0.224-0.581-0.716
		C204.001,69.077,203.553,68.453,202.629,68.453z"/>
	<path fill="#666666" d="M216.253,67.995l-0.312,0.225c-0.033-4.077-0.079-9.104-0.158-10.958c-0.022-0.48,0.291-0.704,0.637-0.704
		c0.324,0,0.67,0.224,0.625,0.704c-0.121,1.487-0.156,3.876-0.156,6.512c0,4.245,0.11,7.795,0.235,10.51
		c0,1.027,0.323,1.329,0.323,1.587c0,0.278-0.225,0.468-0.471,0.468c-0.189,0-0.399-0.09-0.545-0.347
		c-0.126-0.188-0.236-0.893-0.158-1.642l0.146,0.056c-0.527,1.487-1.509,2.012-2.392,2.012c-1.631,0-2.892-1.396-2.892-4.211
		c0-2.981,1.774-4.702,3.484-4.702C215.227,67.503,215.817,67.648,216.253,67.995z M215.984,73.568
		c0.046-1.217,0.012-3.396,0.012-4.666c-0.335-0.212-0.647-0.415-1.374-0.415c-1.138,0-2.412,1.219-2.412,3.606
		c0,1.967,0.659,3.352,1.911,3.352C215.315,75.445,215.829,74.295,215.984,73.568z"/>
	<path fill="#666666" d="M220.208,71.346c0.413,0.01,1.183,0.077,1.865,0.077c0.535,0,2.3-0.046,2.781-0.156l-0.537,0.323
		c0.056-1.464-0.211-3.206-1.687-3.206c-1.642,0-2.12,2.357-2.135,3.675c-0.022,2.301,0.794,3.487,2.202,3.487
		c0.758,0,1.161-0.415,1.418-0.963c0.18-0.402,0.357-0.624,0.692-0.624c0.245,0,0.446,0.167,0.435,0.469
		c-0.022,1.026-1.184,2.009-2.725,2.009c-1.563,0-3.028-1.476-3.028-3.876c0-3.382,1.509-5.048,3.085-5.048
		c2.421,0,2.747,2.1,2.779,3.908c0.012,0.661-0.145,0.828-0.837,0.828c-1.272,0-3.494,0.056-4.311,0.067L220.208,71.346
		L220.208,71.346z"/>
	<path fill="#666666" d="M230.17,67.559c1.194,0,2.267,0.781,2.267,2.055c0.091,0.604-0.221,0.896-0.602,0.896
		c-0.277,0-0.514-0.325-0.492-0.828c0.022-0.591-0.211-1.295-1.285-1.295c-0.802,0-1.307,0.602-1.307,1.295
		c0,2.046,3.909,1.8,3.909,4.368c0,1.372-0.962,2.379-2.714,2.379c-1.474,0-2.659-0.974-2.569-2.313
		c0.033-0.559,0.313-0.771,0.636-0.771c0.278,0,0.503,0.18,0.459,0.926c-0.045,0.737,0.657,1.319,1.553,1.319
		c0.981,0,1.608-0.558,1.608-1.464c0-1.954-3.909-1.72-3.909-4.311C227.725,68.609,228.629,67.559,230.17,67.559z"/>
	<path fill="#666666" d="M235.877,65.683c-0.436,0-0.892-0.322-0.892-0.938c0-0.613,0.501-0.949,0.959-0.949
		c0.437,0,0.948,0.336,0.916,0.949C236.806,65.461,236.28,65.683,235.877,65.683z M235.777,76.25c-0.301,0-0.627-0.224-0.582-0.692
		c0.067-0.882,0.136-2.244,0.136-3.54c0-1.24-0.068-2.49-0.101-3.484c-0.025-0.458,0.335-0.693,0.638-0.693
		c0.289,0,0.579,0.225,0.567,0.693c-0.066,1.54-0.167,3.048-0.167,4.545c0,0.795,0.058,1.652,0.101,2.424
		C236.393,75.992,236.067,76.25,235.777,76.25z"/>
	<path fill="#666666" d="M244.857,70.62c0,1.485-1.062,2.904-3.07,2.904c-1.574,0-2.981-0.915-2.981-2.771
		c0-2.123,1.46-3.24,3.038-3.261C243.641,67.459,244.857,68.588,244.857,70.62z M242.167,80.75c1.417,0,1.976-0.836,1.976-2.032
		c0-1.262-0.759-1.999-1.452-2.011c-0.726-0.012-1.642,0.045-2.378-0.046c-0.929-0.055-1.419-0.77-1.419-1.641
		c0-0.938,0.592-1.753,1.263-2.2l0.49,0.323c-0.054,0.056-0.76,1.117-0.76,1.865c0,0.49,0.392,0.727,1.041,0.727
		c0.826,0.044,0.781-0.024,1.787,0.035c0.903,0.043,2.424,0.937,2.424,2.903c0,1.787-1.096,2.981-3.273,2.981
		c-1.676,0-2.881-0.905-2.881-2.559c0-1.495,0.948-2.78,1.72-2.78c0.814,0,0.982,0.312,0.39,0.312c-0.3,0-1.104,0.737-1.104,2.211
		C239.988,79.98,240.625,80.75,242.167,80.75z M243.897,70.429c0-1.283-0.883-2.011-2.068-2.011c-1.384,0-2.021,1.22-2.021,2.178
		c0,1.354,0.76,2.079,1.988,2.079C243.237,72.675,243.897,71.67,243.897,70.429z M242.77,68.105
		c-0.179-1.216,0.992-3.315,2.357-3.315c0.301,0,0.546,0.122,0.546,0.548c0,0.233-0.168,0.413-0.491,0.569
		c-0.948,0.201-1.854,1.139-1.686,2.479L242.77,68.105z"/>
	<path fill="#666666" d="M247.54,76.149c-0.293,0-0.582-0.278-0.548-0.738c0.078-0.947,0.121-2.378,0.121-3.785
		c0-1.141-0.022-2.256-0.077-3.172c-0.021-0.459,0.19-0.747,0.624-0.747c0.458,0,0.549,0.313,0.504,0.78
		c-0.046,0.302-0.021,0.949-0.058,1.273l-0.109-0.056c0.614-1.386,1.72-2.032,2.535-2.032c1.115,0,2.077,0.814,2.077,3.082
		c0,0.837-0.023,1.676-0.023,2.412c0,0.726,0.023,1.453,0.077,2.233c0.035,0.504-0.313,0.749-0.624,0.749
		c-0.301,0-0.604-0.236-0.56-0.692c0.112-0.963,0.168-2.491,0.168-3.765c0-0.357-0.043-0.771-0.056-1.072
		c-0.046-1.228-0.391-1.942-1.227-1.942c-0.997,0-2.013,1.24-2.267,2.513c-0.012,0.412-0.012,0.826-0.012,1.194
		c0,1.016,0,1.921,0.066,2.961C248.176,75.835,248.052,76.149,247.54,76.149z"/>
</g>
<g>
	<path fill="#666666" d="M146.941,30.5l0.166-1.284c1.996,5.871,6.914,17.8,8.792,22.316c0.475,1.188-0.38,2.043-1.235,2.043
		c-0.476,0-0.975-0.31-1.211-0.974c-1.736-4.918-5.443-15.636-7.604-21.007l0.618-0.284c-1.665,3.042-4.612,8.317-5.704,9.956
		l0.404-1.615c0,4.23,0.047,9.245,0.094,12.357c0.024,1.021-0.688,1.568-1.379,1.568c-0.689,0-1.355-0.475-1.33-1.472
		c0.189-5.038,0.428-13.475,0.428-21.483c0-6.821-0.119-10.291-0.522-14.163c-0.095-0.999,0.666-1.498,1.45-1.498
		c0.761,0,1.544,0.499,1.52,1.498c-0.19,4.562-0.261,12.286-0.261,21.53l-0.333-0.189c3.754-6.228,9.126-16.873,10.908-22.053
		c0.26-0.69,0.761-0.998,1.262-0.998c0.877,0,1.732,0.879,1.235,2.044C152.977,19.783,150.316,24.392,146.941,30.5z"/>
	<path fill="#999999" d="M164.004,54.099c-2.639,0-4.729-1.877-4.729-4.681c0-4.088,3.612-6.228,7.011-6.228
		c1.281,0,2.684,0.356,3.279,0.618c0,0.356,0.145,1.592,0.145,1.973c-0.43-0.261-1.785-0.642-3.424-0.642
		c-2.425,0-4.753,1.402-4.753,4.041c0,1.806,1.188,2.922,2.922,2.922c2.732,0,4.754-3.209,4.918-4.445
		c0,0.333,0.143,2.496,0.143,2.851C168.708,51.935,166.522,54.099,164.004,54.099z M169.065,41.098c0-2.804-1.332-4.182-2.947-4.182
		c-1.713,0-3.184,1.307-3.399,3.351c0.095,1.021-0.546,1.354-1.141,1.354c-0.782,0-1.26-0.595-1.232-1.711
		c0.067-2.304,2.802-4.824,5.845-4.824c2.494,0,4.894,1.616,4.894,6.226c0,2.996-0.022,5.3-0.022,8.247
		c0,2.185,0.688,2.686,0.688,3.47c0,0.595-0.567,1.045-1.161,1.045c-1.212,0-1.426-1.045-1.426-2.162
		c0-0.309-0.142-2.472-0.094-7.225v-3.589H169.065z"/>
	<path fill="#999999" d="M178.595,53.79c-0.736,0-1.403-0.499-1.355-1.473c0.262-4.991,0.452-14.473,0.452-23.242
		c0-7.51-0.021-11.952-0.284-15.898c-0.071-0.998,0.475-1.591,1.212-1.591c0.713,0,1.472,0.594,1.449,1.591
		c-0.167,4.563-0.355,12.69-0.355,22.742c0,6.156,0.095,12.287,0.188,16.278C179.926,53.242,179.33,53.79,178.595,53.79z"/>
	<path fill="#999999" d="M187.981,31.26c-0.927,0-1.899-0.688-1.899-1.997c0-1.307,1.068-2.02,2.043-2.02
		c0.926,0,2.021,0.713,1.948,2.02C189.953,30.785,188.837,31.26,187.981,31.26z M187.768,53.742c-0.645,0-1.331-0.477-1.236-1.472
		c0.143-1.878,0.285-4.777,0.285-7.534c0-2.638-0.143-5.298-0.213-7.414c-0.048-0.977,0.713-1.474,1.354-1.474
		c0.618,0,1.236,0.476,1.212,1.474c-0.142,3.279-0.355,6.486-0.355,9.671c0,1.687,0.119,3.517,0.214,5.156
		C189.075,53.195,188.385,53.742,187.768,53.742z"/>
	<path fill="#999999" d="M196.631,53.527c-0.617,0-1.236-0.594-1.163-1.568c0.167-2.021,0.261-5.062,0.261-8.056
		c0-2.424-0.047-4.801-0.167-6.749c-0.048-0.974,0.404-1.592,1.333-1.592c0.974,0,1.163,0.666,1.068,1.663
		c-0.095,0.642-0.048,2.021-0.118,2.71l-0.239-0.12c1.309-2.947,3.66-4.325,5.396-4.325c2.376,0,4.419,1.734,4.419,6.559
		c0,1.783-0.047,3.565-0.047,5.134c0,1.545,0.047,3.089,0.164,4.753c0.071,1.069-0.665,1.591-1.329,1.591
		c-0.643,0-1.283-0.5-1.188-1.472c0.237-2.044,0.355-5.3,0.355-8.009c0-0.76-0.095-1.639-0.118-2.282
		c-0.096-2.614-0.831-4.135-2.614-4.135c-2.115,0-4.277,2.638-4.825,5.348c-0.022,0.878-0.022,1.757-0.022,2.542
		c0,2.163,0,4.087,0.143,6.297C197.985,52.862,197.724,53.527,196.631,53.527z"/>
	<path fill="#999999" d="M216.855,54.099c-2.638,0-4.73-1.877-4.73-4.681c0-4.088,3.612-6.228,7.011-6.228
		c1.284,0,2.687,0.356,3.281,0.618c0,0.356,0.143,1.592,0.143,1.973c-0.43-0.261-1.783-0.642-3.424-0.642
		c-2.424,0-4.752,1.402-4.752,4.041c0,1.806,1.187,2.922,2.922,2.922c2.733,0,4.752-3.209,4.919-4.445
		c0,0.333,0.142,2.496,0.142,2.851C221.561,51.935,219.374,54.099,216.855,54.099z M221.916,41.098c0-2.804-1.33-4.182-2.945-4.182
		c-1.712,0-3.185,1.307-3.4,3.351c0.096,1.021-0.545,1.354-1.14,1.354c-0.784,0-1.26-0.595-1.235-1.711
		c0.071-2.304,2.805-4.824,5.846-4.824c2.497,0,4.896,1.616,4.896,6.226c0,2.996-0.025,5.3-0.025,8.247
		c0,2.185,0.69,2.686,0.69,3.47c0,0.595-0.57,1.045-1.164,1.045c-1.213,0-1.426-1.045-1.426-2.162c0-0.309-0.143-2.472-0.095-7.225
		v-3.589H221.916z"/>
</g>
</svg>
