<?xml version="1.0" encoding="UTF-8"?><svg id="Layer_1" xmlns="http://www.w3.org/2000/svg" width="320" height="134" viewBox="0 0 320 134" fill="none"><path d="m65.01,40.14c.5,17.2-16.9,25.3-33.7,25.8S.51,52.84.01,35.64C-.49,18.44,12.71,4.04,29.51,3.54c16.8-.5,35,19.4,35.5,36.6Z" style="fill:#909;"/><path d="m113.11,62.34c-13.9,10.2-30.3.4-40.3-13.2-9.9-13.6-6.7-32.8,7.2-43,13.9-10.2,33.2-7.4,43.2,6.2,9.9,13.6,3.8,39.9-10.1,50Z" style="fill:#ccc;"/><path d="m97.41,84.84c-3.1-7.5,3.2-14,10.5-17s15.8.6,18.9,8.1-.3,16.1-7.6,19.1-18.7-2.7-21.8-10.2Z" style="fill:#fa0;"/><path d="m60.51,117.34c-15.3-.4-21.6-16.1-21.3-31.1.3-14.9,13-26.8,28.3-26.4,15.3.4,27.4,12.7,27.1,27.7-.4,15-18.8,30.2-34.1,29.8Z" style="fill:#eee;"/><g style="isolation:isolate;"><text transform="translate(132.25 51.05)" style="fill:#666; font-family:Pompiere-Regular, &apos;Pompiere &apos;; font-size:46px; isolation:isolate;"><tspan x="0" y="0">Kalina.</tspan></text></g><g style="isolation:isolate;"><text transform="translate(229.35 51.05)" style="fill:#909; font-family:Pompiere-Regular, &apos;Pompiere &apos;; font-size:46px; isolation:isolate;"><tspan x="0" y="0">Style</tspan></text></g><g style="isolation:isolate;"><text transform="translate(133.25 91.59)" style="fill:#666; font-family:Pompiere-Regular, &apos;Pompiere &apos;; font-size:32px; isolation:isolate;"><tspan x="0" y="0">UX/UI Design</tspan></text></g></svg>