<?xml version="1.0" encoding="utf-8"?>
<!-- Generator: Adobe Illustrator 12.0.0, SVG Export Plug-In . SVG Version: 6.00 Build 51448)  -->
<!DOCTYPE svg PUBLIC "-//W3C//DTD SVG 1.1//EN" "http://www.w3.org/Graphics/SVG/1.1/DTD/svg11.dtd" [
	<!ENTITY ns_svg "http://www.w3.org/2000/svg">
	<!ENTITY ns_xlink "http://www.w3.org/1999/xlink">
]>
<svg  version="1.1" id="Layer_1" xmlns="&ns_svg;" xmlns:xlink="&ns_xlink;" width="300.844" height="234.833"
	 viewBox="0 0 300.844 234.833" overflow="visible" enable-background="new 0 0 300.844 234.833" xml:space="preserve">
<g>
	<path fill="#666666" d="M44.429,189.714c0.604-3.684,1.483-12.259,1.044-14.236l1.319,1.595
		c-8.024-0.549-11.377,0.441-13.795,0.441c-2.309,0-3.353-1.485-3.353-3.026c0-1.483,1.1-2.911,3.353-2.582
		c2.309,0.275,4.617,0.218,6.65,0.218c4.177,0,6.156-0.604,8.189-0.604c1.594,0,2.857,0.771,2.857,3.242
		c0,22.975-7.31,37.045-19.292,37.045c-14.401,0-21.216-14.508-21.216-47.707c0-26.932,7.036-42.322,22.261-43.147
		c11.047-0.604,17.588,6.542,17.588,25.614c0.056,2.419-0.934,3.628-2.473,3.628c-1.429,0-2.858-1.045-2.858-3.188
		c0-16.545-4.837-21.327-12.586-20.778c-12.039,0.881-16.546,17.48-16.546,38.916c0,34.792,7.586,41.168,16.325,41.168
		C38.273,206.313,42.615,200.65,44.429,189.714z"/>
	<path fill="#999999" d="M63.995,189.174c1.831,0.05,5.244,0.346,8.261,0.346c2.375,0,10.191-0.198,12.317-0.691l-2.374,1.435
		c0.249-6.479-0.939-14.197-7.469-14.197c-7.271,0-9.398,10.438-9.448,16.275c-0.099,10.19,3.513,15.435,9.745,15.435
		c3.364,0,5.145-1.831,6.282-4.253c0.792-1.782,1.583-2.771,3.066-2.771c1.088,0,1.979,0.739,1.93,2.076
		c-0.099,4.553-5.243,8.906-12.07,8.906c-6.925,0-13.406-6.53-13.406-17.166c0-14.987,6.678-22.358,13.653-22.358
		c10.735,0,12.169,9.3,12.318,17.312c0.049,2.918-0.645,3.662-3.711,3.662c-5.64,0-15.482,0.246-19.095,0.296L63.995,189.174
		L63.995,189.174z"/>
	<path fill="#999999" d="M94.666,191.205c0-12.368,6.232-19.146,14.691-19.146c7.123,0,12.812,6.529,12.812,18.6
		c0,13.753-6.778,20.876-14.048,20.975C100.501,211.781,94.666,205.152,94.666,191.205z M99.216,192.39
		c0,10.437,3.512,15.038,8.904,15.038c6.281,0,9.498-8.163,9.498-16.275c0-8.409-3.266-15.088-8.658-15.088
		C102.679,176.066,99.216,182.844,99.216,192.39z"/>
	<path fill="#999999" d="M137.898,194.073c-0.147,1.533-0.197,2.373-0.197,3.66c0,3.116,0.148,6.679,0.396,9.943
		c0.148,2.177-1.384,3.313-2.868,3.313c-1.286,0-2.622-1.038-2.424-3.067c0.345-4.203,0.543-11.228,0.543-17.461
		c0-5.046-0.147-10.142-0.346-14.148c-0.099-2.028,1.435-3.065,2.72-3.065c1.287,0,2.671,0.989,2.523,3.065
		c-0.148,2.03-0.691,5.64-1.236,13.753l-0.396-1.682c2.82-8.706,9.845-15.979,13.751-15.979c1.78,0,2.523,1.137,2.523,2.474
		c0,1.187-0.545,2.721-2.671,3.066C146.309,178.64,138.641,186.75,137.898,194.073z"/>
	<path fill="#999999" d="M182.963,185.959c0,6.58-4.698,12.862-13.603,12.862c-6.976,0-13.209-4.056-13.209-12.268
		c0-9.398,6.479-14.345,13.455-14.445C177.572,171.96,182.963,176.957,182.963,185.959z M171.042,230.826
		c6.283,0,8.756-3.709,8.756-9.001c0-5.591-3.363-8.856-6.431-8.904c-3.215-0.049-7.271,0.197-10.535-0.197
		c-4.105-0.25-6.283-3.415-6.283-7.272c0-4.155,2.622-7.767,5.591-9.746l2.176,1.435c-0.246,0.249-3.363,4.947-3.363,8.26
		c0,2.179,1.731,3.218,4.602,3.218c3.66,0.197,3.462-0.099,7.914,0.148c4.008,0.196,10.735,4.155,10.735,12.861
		c0,7.915-4.848,13.207-14.494,13.207c-7.42,0-12.762-4.008-12.762-11.327c0-6.629,4.204-12.317,7.617-12.317
		c3.611,0,4.353,1.386,1.731,1.386c-1.337,0-4.897,3.264-4.897,9.792C161.396,227.413,164.215,230.826,171.042,230.826z
		 M178.709,185.12c0-5.688-3.908-8.904-9.15-8.904c-6.135,0-8.954,5.392-8.954,9.646c0,5.985,3.363,9.199,8.806,9.199
		C175.79,195.061,178.709,190.61,178.709,185.12z M173.714,174.83c-0.791-5.393,4.402-14.692,10.437-14.692
		c1.335,0,2.425,0.546,2.425,2.425c0,1.04-0.743,1.831-2.177,2.522c-4.205,0.891-8.212,5.045-7.47,10.98L173.714,174.83z"/>
	<path fill="#999999" d="M195.727,164.094c-1.931,0-3.958-1.435-3.958-4.155c0-2.72,2.226-4.204,4.254-4.204
		c1.93,0,4.205,1.484,4.057,4.204C199.832,163.105,197.507,164.094,195.727,164.094z M195.282,210.89
		c-1.336,0-2.77-0.989-2.572-3.066c0.297-3.908,0.594-9.943,0.594-15.683c0-5.489-0.298-11.03-0.446-15.431
		c-0.099-2.029,1.484-3.068,2.82-3.068c1.285,0,2.572,0.99,2.523,3.068c-0.298,6.824-0.743,13.503-0.743,20.132
		c0,3.513,0.248,7.32,0.445,10.733C198.003,209.754,196.567,210.89,195.282,210.89z"/>
	<path fill="#999999" d="M212.248,189.174c1.83,0.05,5.242,0.346,8.26,0.346c2.375,0,10.19-0.198,12.318-0.691l-2.373,1.435
		c0.246-6.479-0.939-14.197-7.471-14.197c-7.272,0-9.398,10.438-9.448,16.275c-0.099,10.19,3.513,15.435,9.746,15.435
		c3.362,0,5.144-1.831,6.282-4.253c0.791-1.782,1.583-2.771,3.066-2.771c1.089,0,1.979,0.739,1.93,2.076
		c-0.1,4.553-5.244,8.906-12.072,8.906c-6.925,0-13.404-6.53-13.404-17.166c0-14.987,6.678-22.358,13.653-22.358
		c10.732,0,12.167,9.3,12.317,17.312c0.048,2.918-0.644,3.662-3.712,3.662c-5.638,0-15.482,0.246-19.093,0.296V189.174
		L212.248,189.174z"/>
	<path fill="#999999" d="M255.334,210.742c-0.842,0-2.126-0.393-2.424-1.383c-3.612-10.885-6.282-21.321-10.783-30.968
		c-0.396-0.939-0.644-1.829-0.644-2.572c0-1.829,1.088-2.868,2.424-2.868c1.139,0,2.67,0.841,3.264,2.82
		c3.314,10.932,7.224,26.563,9.004,31.164h-1.287c2.624-9.796,5.441-15.88,8.707-31.116c0.395-1.73,1.335-2.771,2.868-2.771
		c1.336,0,2.425,0.791,2.425,2.622c0,0.693-0.248,1.731-0.594,2.623c-3.66,9.251-7.568,20.973-10.388,30.769
		C257.609,210.099,256.423,210.742,255.334,210.742z"/>
	<path fill="#999999" d="M284.716,211.633c-5.488,0-9.843-3.907-9.843-9.744c0-8.509,7.521-12.961,14.592-12.961
		c2.671,0,5.591,0.741,6.826,1.285c0,0.741,0.297,3.315,0.297,4.104c-0.89-0.542-3.71-1.334-7.124-1.334
		c-5.045,0-9.893,2.919-9.893,8.408c0,3.76,2.474,6.084,6.084,6.084c5.688,0,9.893-6.676,10.24-9.249
		c0,0.692,0.296,5.193,0.296,5.936C294.512,207.13,289.962,211.633,284.716,211.633z M295.253,184.575
		c0-5.836-2.77-8.706-6.134-8.706c-3.562,0-6.628,2.72-7.072,6.977c0.198,2.125-1.138,2.818-2.375,2.818
		c-1.632,0-2.62-1.236-2.573-3.561c0.149-4.799,5.837-10.043,12.168-10.043c5.195,0,10.191,3.364,10.191,12.961
		c0,6.232-0.051,11.031-0.051,17.165c0,4.55,1.437,5.59,1.437,7.222c0,1.236-1.188,2.177-2.426,2.177
		c-2.521,0-2.968-2.177-2.968-4.502c0-0.644-0.296-5.145-0.197-15.038V184.575L295.253,184.575z"/>
</g>
<g>
	<path fill="#666666" d="M64.61,140.781c-0.078,0.801-0.104,1.242-0.104,1.913c0,1.627,0.078,3.487,0.206,5.193
		c0.078,1.134-0.724,1.728-1.498,1.728c-0.672,0-1.37-0.541-1.266-1.601c0.18-2.196,0.284-5.864,0.284-9.12
		c0-2.634-0.078-5.293-0.182-7.386c-0.051-1.061,0.75-1.603,1.422-1.603c0.672,0,1.396,0.517,1.317,1.603
		c-0.078,1.059-0.362,2.943-0.646,7.181l-0.206-0.879c1.472-4.547,5.141-8.344,7.181-8.344c0.93,0,1.318,0.594,1.318,1.292
		c0,0.618-0.286,1.421-1.396,1.601C69.001,132.721,64.997,136.957,64.61,140.781z"/>
	<path fill="#666666" d="M79.283,149.952c-2.868,0-5.142-2.041-5.142-5.089c0-4.443,3.927-6.769,7.62-6.769
		c1.396,0,2.92,0.388,3.564,0.671c0,0.388,0.155,1.732,0.155,2.146c-0.463-0.285-1.937-0.697-3.719-0.697
		c-2.633,0-5.166,1.523-5.166,4.392c0,1.962,1.291,3.177,3.177,3.177c2.971,0,5.167-3.486,5.348-4.83
		c0,0.362,0.156,2.713,0.156,3.101C84.397,147.601,82.021,149.952,79.283,149.952z M84.785,135.821c0-3.047-1.446-4.547-3.203-4.547
		c-1.86,0-3.462,1.423-3.695,3.644c0.104,1.11-0.595,1.473-1.241,1.473c-0.852,0-1.369-0.646-1.344-1.86
		c0.078-2.506,3.049-5.243,6.355-5.243c2.712,0,5.321,1.756,5.321,6.769c0,3.255-0.026,5.759-0.026,8.963
		c0,2.376,0.75,2.919,0.75,3.772c0,0.646-0.62,1.136-1.266,1.136c-1.318,0-1.55-1.136-1.55-2.35c0-0.338-0.156-2.688-0.103-7.854
		V135.821z"/>
	<path fill="#666666" d="M94.859,129.958c0.697,0,1.292,0.542,1.215,1.783c-0.052,0.617-0.207,2.143-0.129,3.486l-0.542-0.518
		c1.316-3.409,4.236-5.399,7.052-5.399c3.333,0,5.167,2.48,5.167,6.717c0,9.353-7.465,13.64-11.599,13.898
		c-0.051,1.162-0.078,2.298-0.078,3.385c0,3.771,0.335,6.896,0.388,8.033c0.025,0.879-0.878,1.395-1.627,1.395
		c-0.671,0-1.37-0.465-1.318-1.603c0.129-1.679,0.284-6.404,0.284-14.053c0-4.495-0.052-9.712-0.284-15.241
		C93.335,130.707,93.955,129.958,94.859,129.958z M96.1,148.248l-0.543-0.725c2.015,0.725,9.688-2.223,9.688-11.418
		c0-2.971-1.421-4.546-3.178-4.546c-3.281,0-5.761,3.771-6.096,6.51C95.944,141.246,95.816,144.889,96.1,148.248z"/>
	<path fill="#666666" d="M114.105,149.382c-0.775,0-1.317-0.516-1.317-1.603c0.128-12.243,0.361-20.639,0.361-28.673
		c0-5.347-0.077-7.75-0.284-13.744c-0.077-1.086,0.774-1.627,1.523-1.627c0.75,0,1.37,0.542,1.344,1.627
		c-0.208,4.754-0.491,19.142-0.568,29.81l-0.542,0.104c1.318-3.202,3.333-5.839,6.458-5.839c2.428,0,4.779,1.887,4.779,7.131v4.185
		c0,2.223,0,4.651,0.207,6.923c0.078,1.112-0.801,1.705-1.473,1.705c-0.827,0-1.472-0.516-1.37-1.603
		c0.259-2.66,0.286-4.777,0.286-6.844c0-1.551-0.104-2.971-0.13-4.341c-0.052-2.815-0.8-4.753-2.556-4.753
		c-2.764,0-5.012,3.617-5.528,6.794c0.052,3.798,0.155,6.847,0.335,9.04C115.706,148.79,115.034,149.382,114.105,149.382z"/>
	<path fill="#666666" d="M134.151,125.126c-1.008,0-2.068-0.749-2.068-2.171c0-1.42,1.164-2.196,2.222-2.196
		c1.008,0,2.197,0.775,2.119,2.196C136.295,124.609,135.082,125.126,134.151,125.126z M133.919,149.564
		c-0.698,0-1.446-0.518-1.343-1.602c0.156-2.038,0.311-5.193,0.311-8.189c0-2.866-0.155-5.76-0.233-8.061
		c-0.052-1.058,0.774-1.601,1.473-1.601c0.671,0,1.344,0.517,1.317,1.601c-0.155,3.566-0.387,7.053-0.387,10.516
		c0,1.833,0.129,3.823,0.232,5.604C135.339,148.97,134.591,149.564,133.919,149.564z"/>
	<path fill="#666666" d="M148.438,131.532c-2.842,0-4.495,4.03-4.495,8.112c0,5.864,2.325,8.163,4.65,8.163
		c1.654,0,2.739-1.445,3.229-3.229c0.283-0.955,0.775-1.29,1.267-1.29c0.568,0.025,1.109,0.492,1.059,1.29
		c-0.283,3.178-2.713,5.349-5.995,5.349c-3.383,0-6.535-3.331-6.535-10.023c0-7.001,3.229-10.54,6.821-10.592
		c3.178-0.052,5.759,2.197,5.759,6.459c0,1.111-0.438,1.706-1.266,1.706c-0.801,0-1.343-0.518-1.343-1.654
		C151.614,132.979,150.58,131.532,148.438,131.532z"/>
	<path fill="#666666" d="M179.952,130.474l-0.724,0.517c-0.078-9.43-0.181-21.053-0.361-25.342
		c-0.051-1.111,0.671-1.628,1.473-1.628c0.748,0,1.549,0.518,1.446,1.628c-0.286,3.436-0.363,8.963-0.363,15.061
		c0,9.815,0.259,18.031,0.543,24.309c0,2.376,0.749,3.072,0.749,3.667c0,0.646-0.517,1.087-1.085,1.087
		c-0.438,0-0.93-0.208-1.266-0.802c-0.283-0.439-0.542-2.067-0.361-3.799l0.336,0.13c-1.215,3.437-3.488,4.65-5.529,4.65
		c-3.771,0-6.69-3.229-6.69-9.738c0-6.899,4.107-10.876,8.061-10.876C177.576,129.337,178.945,129.672,179.952,130.474z
		 M179.333,143.364c0.103-2.816,0.024-7.853,0.024-10.797c-0.773-0.491-1.498-0.958-3.177-0.958c-2.635,0-5.58,2.817-5.58,8.345
		c0,4.546,1.523,7.75,4.418,7.75C177.782,147.705,178.971,145.043,179.333,143.364z"/>
	<path fill="#666666" d="M189.098,138.224c0.956,0.024,2.739,0.18,4.315,0.18c1.238,0,5.32-0.103,6.431-0.361l-1.24,0.749
		c0.13-3.385-0.49-7.416-3.901-7.416c-3.798,0-4.907,5.451-4.934,8.5c-0.052,5.321,1.835,8.06,5.09,8.06
		c1.755,0,2.687-0.955,3.28-2.222c0.414-0.93,0.827-1.446,1.602-1.446c0.568,0,1.034,0.387,1.008,1.085
		c-0.052,2.377-2.738,4.648-6.303,4.648c-3.617,0-7.001-3.407-7.001-8.963c0-7.826,3.487-11.676,7.129-11.676
		c5.606,0,6.354,4.855,6.432,9.041c0.026,1.524-0.335,1.912-1.937,1.912c-2.945,0-8.086,0.129-9.972,0.155L189.098,138.224
		L189.098,138.224z"/>
	<path fill="#666666" d="M212.141,129.466c2.764,0,5.243,1.808,5.243,4.753c0.208,1.396-0.517,2.067-1.396,2.067
		c-0.645,0-1.188-0.748-1.137-1.912c0.053-1.368-0.489-2.997-2.97-2.997c-1.859,0-3.022,1.397-3.022,2.997
		c0,4.729,9.04,4.159,9.04,10.101c0,3.179-2.221,5.503-6.276,5.503c-3.408,0-6.148-2.247-5.94-5.348
		c0.077-1.291,0.724-1.783,1.472-1.783c0.646,0,1.162,0.415,1.061,2.145c-0.105,1.706,1.522,3.049,3.589,3.049
		c2.273,0,3.721-1.29,3.721-3.384c0-4.521-9.041-3.977-9.041-9.971C206.483,131.895,208.576,129.466,212.141,129.466z"/>
	<path fill="#666666" d="M225.341,125.126c-1.008,0-2.067-0.749-2.067-2.171c0-1.42,1.163-2.196,2.222-2.196
		c1.009,0,2.196,0.775,2.118,2.196C227.485,124.609,226.271,125.126,225.341,125.126z M225.108,149.564
		c-0.696,0-1.446-0.518-1.343-1.602c0.155-2.038,0.311-5.193,0.311-8.189c0-2.866-0.155-5.76-0.233-8.061
		c-0.053-1.058,0.773-1.601,1.472-1.601c0.674,0,1.345,0.517,1.318,1.601c-0.155,3.566-0.387,7.053-0.387,10.516
		c0,1.833,0.129,3.823,0.231,5.604C226.528,148.97,225.779,149.564,225.108,149.564z"/>
	<path fill="#666666" d="M246.109,136.544c0,3.436-2.453,6.717-7.103,6.717c-3.643,0-6.897-2.118-6.897-6.407
		c0-4.908,3.383-7.491,7.025-7.543C243.294,129.233,246.109,131.842,246.109,136.544z M239.885,159.973
		c3.28,0,4.572-1.938,4.572-4.701c0-2.918-1.757-4.622-3.357-4.647c-1.681-0.028-3.798,0.102-5.504-0.105
		c-2.144-0.129-3.28-1.782-3.28-3.797c0-2.172,1.369-4.056,2.92-5.09l1.136,0.75c-0.129,0.129-1.757,2.584-1.757,4.314
		c0,1.135,0.904,1.679,2.401,1.679c1.913,0.103,1.809-0.051,4.134,0.077c2.092,0.104,5.606,2.172,5.606,6.717
		c0,4.134-2.531,6.896-7.568,6.896c-3.875,0-6.666-2.092-6.666-5.914c0-3.462,2.196-6.432,3.978-6.432
		c1.885,0,2.273,0.724,0.903,0.724c-0.697,0-2.557,1.704-2.557,5.115C234.848,158.192,236.32,159.973,239.885,159.973z
		 M243.889,136.105c0-2.971-2.04-4.65-4.778-4.65c-3.203,0-4.677,2.818-4.677,5.039c0,3.126,1.757,4.804,4.6,4.804
		C242.365,141.296,243.889,138.972,243.889,136.105z M241.279,130.732c-0.414-2.816,2.299-7.672,5.449-7.672
		c0.699,0,1.267,0.284,1.267,1.267c0,0.542-0.387,0.956-1.137,1.317c-2.195,0.465-4.288,2.634-3.899,5.733L241.279,130.732z"/>
	<path fill="#666666" d="M252.311,149.331c-0.67,0-1.344-0.646-1.266-1.704c0.181-2.197,0.286-5.503,0.286-8.757
		c0-2.637-0.054-5.22-0.182-7.339c-0.052-1.058,0.438-1.729,1.445-1.729c1.06,0,1.266,0.722,1.164,1.806
		c-0.104,0.698-0.054,2.197-0.131,2.946l-0.258-0.13c1.421-3.202,3.979-4.7,5.864-4.7c2.585,0,4.806,1.884,4.806,7.129
		c0,1.938-0.052,3.876-0.052,5.581c0,1.68,0.052,3.357,0.181,5.166c0.078,1.161-0.724,1.729-1.446,1.729
		c-0.697,0-1.396-0.541-1.291-1.602c0.257-2.222,0.388-5.76,0.388-8.706c0-0.827-0.104-1.781-0.131-2.479
		c-0.101-2.841-0.903-4.494-2.841-4.494c-2.301,0-4.649,2.868-5.243,5.812c-0.026,0.956-0.026,1.913-0.026,2.764
		c0,2.353,0,4.442,0.155,6.847C253.782,148.608,253.498,149.331,252.311,149.331z"/>
</g>
<g>
	<path fill="#666666" d="M19.642,43.75l0.385-2.968c4.618,13.575,15.994,41.167,20.336,51.61c1.1,2.75-0.879,4.728-2.858,4.728
		c-1.1,0-2.254-0.714-2.803-2.252c-4.013-11.378-12.586-36.169-17.589-48.59l1.428-0.659C14.694,52.655,7.88,64.856,5.351,68.65
		l0.935-3.74c0,9.785,0.109,21.382,0.219,28.583c0.055,2.363-1.594,3.627-3.187,3.627c-1.594,0-3.133-1.099-3.079-3.41
		C0.679,82.06,1.229,62.547,1.229,44.024c0-15.773-0.275-23.799-1.21-32.759C-0.2,8.957,1.558,7.804,3.373,7.804
		c1.759,0,3.573,1.153,3.518,3.461C6.45,21.818,6.286,39.684,6.286,61.064l-0.771-0.44c8.685-14.4,21.106-39.024,25.229-51.005
		c0.605-1.595,1.759-2.31,2.913-2.31c2.035,0,4.013,2.034,2.859,4.727C33.603,18.961,27.446,29.625,19.642,43.75z"/>
	<path fill="#999999" d="M59.105,98.33c-6.1,0-10.938-4.342-10.938-10.829c0-9.454,8.354-14.401,16.214-14.401
		c2.967,0,6.211,0.825,7.585,1.431c0,0.823,0.33,3.683,0.33,4.561c-0.989-0.604-4.123-1.484-7.914-1.484
		c-5.607,0-10.994,3.243-10.994,9.345c0,4.176,2.749,6.759,6.761,6.759c6.321,0,10.993-7.418,11.377-10.277
		c0,0.77,0.33,5.771,0.33,6.596C69.989,93.329,64.932,98.33,59.105,98.33z M70.813,68.265c0-6.487-3.079-9.673-6.816-9.673
		c-3.957,0-7.364,3.023-7.858,7.75c0.219,2.362-1.265,3.132-2.638,3.132c-1.815,0-2.914-1.373-2.858-3.957
		c0.165-5.333,6.486-11.16,13.521-11.16c5.771,0,11.322,3.739,11.322,14.401c0,6.925-0.056,12.258-0.056,19.073
		c0,5.058,1.595,6.211,1.595,8.024c0,1.375-1.319,2.419-2.692,2.419c-2.804,0-3.298-2.419-3.298-5.002
		c0-0.715-0.329-5.717-0.22-16.71L70.813,68.265L70.813,68.265z"/>
	<path fill="#999999" d="M92.853,97.616c-1.703,0-3.242-1.155-3.133-3.409c0.604-11.542,1.044-33.474,1.044-53.754
		c0-17.368-0.055-27.648-0.66-36.772C89.939,1.372,91.203,0,92.907,0c1.649,0,3.408,1.372,3.353,3.681
		c-0.385,10.554-0.825,29.351-0.825,52.6c0,14.236,0.221,28.417,0.439,37.651C95.931,96.351,94.556,97.616,92.853,97.616z"/>
	<path fill="#999999" d="M114.563,45.508c-2.144,0-4.397-1.593-4.397-4.617c0-3.023,2.473-4.671,4.728-4.671
		c2.143,0,4.671,1.648,4.506,4.671C119.125,44.409,116.541,45.508,114.563,45.508z M114.068,97.505c-1.485,0-3.079-1.099-2.858-3.41
		c0.329-4.34,0.658-11.046,0.658-17.422c0-6.101-0.329-12.258-0.493-17.15c-0.111-2.253,1.648-3.408,3.132-3.408
		c1.428,0,2.858,1.099,2.803,3.408c-0.329,7.586-0.824,15.006-0.824,22.372c0,3.901,0.275,8.134,0.495,11.927
		C117.091,96.24,115.497,97.505,114.068,97.505z"/>
	<path fill="#999999" d="M134.571,97.011c-1.429,0-2.859-1.375-2.693-3.628c0.384-4.67,0.604-11.707,0.604-18.632
		c0-5.607-0.109-11.101-0.384-15.609c-0.11-2.253,0.934-3.682,3.078-3.682c2.254,0,2.693,1.538,2.474,3.847
		c-0.221,1.484-0.11,4.671-0.275,6.266l-0.55-0.274c3.024-6.815,8.464-10.004,12.477-10.004c5.496,0,10.224,4.013,10.224,15.171
		c0,4.122-0.11,8.245-0.11,11.872c0,3.574,0.11,7.146,0.385,10.994c0.165,2.472-1.538,3.682-3.079,3.682
		c-1.483,0-2.967-1.155-2.747-3.408c0.549-4.728,0.824-12.256,0.824-18.524c0-1.76-0.219-3.792-0.274-5.276
		c-0.221-6.046-1.925-9.564-6.047-9.564c-4.891,0-9.893,6.102-11.157,12.367c-0.057,2.033-0.057,4.068-0.057,5.881
		c0,5.001,0,9.454,0.331,14.565C137.702,95.471,137.098,97.011,134.571,97.011z"/>
	<path fill="#999999" d="M181.343,98.33c-6.101,0-10.938-4.342-10.938-10.829c0-9.454,8.354-14.401,16.215-14.401
		c2.968,0,6.211,0.825,7.586,1.431c0,0.823,0.33,3.683,0.33,4.561c-0.991-0.604-4.123-1.484-7.916-1.484
		c-5.606,0-10.994,3.243-10.994,9.345c0,4.176,2.749,6.759,6.762,6.759c6.322,0,10.993-7.418,11.377-10.277
		c0,0.77,0.331,5.771,0.331,6.596C192.227,93.329,187.171,98.33,181.343,98.33z M193.05,68.265c0-6.487-3.077-9.673-6.814-9.673
		c-3.958,0-7.365,3.023-7.86,7.75c0.22,2.362-1.264,3.132-2.638,3.132c-1.814,0-2.913-1.373-2.857-3.957
		c0.164-5.333,6.484-11.16,13.521-11.16c5.771,0,11.322,3.739,11.322,14.401c0,6.925-0.056,12.258-0.056,19.073
		c0,5.058,1.594,6.211,1.594,8.024c0,1.375-1.318,2.419-2.692,2.419c-2.804,0-3.299-2.419-3.299-5.002
		c0-0.715-0.329-5.717-0.22-16.71V68.265L193.05,68.265z"/>
</g>
</svg>
