<svg width="320" height="134" viewBox="0 0 320 134" fill="none" xmlns="http://www.w3.org/2000/svg">
<path d="M152.943 73.2324C153.214 74.265 153.35 75.4075 153.35 76.6601C153.35 77.9043 153.244 79.0638 153.032 80.1387C152.821 81.2051 152.524 82.1953 152.144 83.1094C151.763 84.015 151.306 84.8359 150.772 85.5723C150.248 86.3001 149.664 86.9222 149.021 87.4385C147.692 88.5049 146.249 89.0381 144.691 89.0381C144.446 89.0381 144.285 88.9619 144.209 88.8096C144.141 88.6488 144.107 88.4583 144.107 88.2383V87.1465C144.107 86.6217 144.103 85.987 144.095 85.2422C144.095 84.4889 144.09 83.6553 144.082 82.7412C144.082 81.8187 144.074 80.8665 144.057 79.8848C144.048 78.8945 144.035 77.9001 144.019 76.9014C144.01 75.8942 143.997 74.9336 143.98 74.0195C143.93 72.1237 143.87 70.6299 143.803 69.5381C143.76 68.9626 144.014 68.6409 144.564 68.5732C145.377 68.4547 146.046 68.3955 146.57 68.3955C149.973 68.3955 152.097 70.0078 152.943 73.2324ZM145.377 87.8447C146.333 87.8109 147.285 87.4004 148.233 86.6133C149.994 85.1491 151.17 82.9655 151.763 80.0625C151.966 79.0638 152.067 77.9339 152.067 76.6728C152.067 75.4033 151.911 74.3031 151.598 73.3721C151.293 72.4326 150.895 71.6836 150.404 71.125C149.482 70.0755 148.293 69.5508 146.837 69.5508C146.202 69.5508 145.686 69.6185 145.288 69.7539C145.22 70.6256 145.187 71.8486 145.187 73.4228C145.187 75.3102 145.191 76.7532 145.199 77.7519C145.208 78.7506 145.216 79.7282 145.225 80.6846C145.242 81.6409 145.254 82.5592 145.263 83.4394C145.28 84.3112 145.297 85.0941 145.313 85.7881C145.339 86.6598 145.36 87.3454 145.377 87.8447ZM161.005 83.5156C161.022 82.043 160.713 81.0358 160.078 80.4941C159.824 80.2656 159.515 80.1514 159.151 80.1514C158.787 80.1514 158.487 80.2191 158.25 80.3545C158.013 80.4899 157.801 80.6719 157.615 80.9004C157.438 81.1289 157.285 81.3913 157.158 81.6875C157.04 81.9753 156.942 82.2715 156.866 82.5762C156.79 82.8978 156.735 83.2152 156.701 83.5283L158.44 83.6045C159.575 83.6045 160.429 83.5749 161.005 83.5156ZM156.65 84.6201C156.667 85.7881 156.879 86.681 157.285 87.2988C157.725 87.959 158.347 88.2891 159.151 88.2891C159.888 88.2891 160.425 87.9251 160.764 87.1973C160.975 86.7233 161.238 86.4863 161.551 86.4863C161.695 86.4863 161.813 86.5329 161.906 86.626C162.008 86.7191 162.054 86.8841 162.046 87.1211C162.037 87.3496 161.953 87.5993 161.792 87.8701C161.64 88.1409 161.424 88.3822 161.145 88.5937C160.535 89.0677 159.803 89.3047 158.948 89.3047C158.026 89.3047 157.23 88.9111 156.562 88.124C155.859 87.2946 155.508 86.3086 155.508 85.166C155.508 84.0234 155.605 83.0967 155.8 82.3857C156.003 81.6663 156.27 81.0697 156.6 80.5957C157.243 79.6393 158.047 79.1611 159.012 79.1611C160.247 79.1611 161.115 79.6478 161.614 80.6211C161.961 81.2982 162.147 82.2926 162.173 83.6045C162.181 83.9769 162.122 84.2266 161.995 84.3535C161.868 84.4805 161.61 84.5439 161.221 84.5439L156.65 84.6201ZM165.207 85.7881C165.596 85.7881 165.77 86.1393 165.728 86.8418C165.694 87.2565 165.854 87.612 166.21 87.9082C166.549 88.196 166.984 88.3398 167.518 88.3398C168.059 88.3398 168.495 88.1917 168.825 87.8955C169.155 87.5993 169.32 87.2311 169.32 86.791C169.32 86.3424 169.21 85.9954 168.99 85.75C168.77 85.4961 168.495 85.2718 168.165 85.0771C167.835 84.874 167.479 84.6836 167.099 84.5059C166.718 84.3197 166.362 84.1081 166.032 83.8711C165.262 83.304 164.877 82.6058 164.877 81.7764C164.877 81.057 165.122 80.4603 165.613 79.9863C166.138 79.47 166.819 79.2119 167.657 79.2119C168.377 79.2119 168.978 79.4193 169.46 79.834C169.976 80.2741 170.234 80.8454 170.234 81.5478C170.285 81.8948 170.239 82.153 170.095 82.3223C169.951 82.4831 169.782 82.5635 169.587 82.5635C169.401 82.5635 169.248 82.4788 169.13 82.3096C169.02 82.1403 168.969 81.9414 168.978 81.7129C168.994 81.4844 168.982 81.2855 168.939 81.1162C168.906 80.9385 168.834 80.7777 168.724 80.6338C168.478 80.3122 168.08 80.1514 167.53 80.1514C167.09 80.1514 166.769 80.2572 166.565 80.4687C166.218 80.8327 166.045 81.2135 166.045 81.6113C166.045 82.0091 166.155 82.3392 166.375 82.6016C166.595 82.8555 166.87 83.0882 167.2 83.2998C167.53 83.5029 167.886 83.6976 168.267 83.8838C168.647 84.07 169.003 84.2816 169.333 84.5185C170.103 85.0687 170.488 85.7585 170.488 86.5879C170.488 87.3835 170.226 88.0267 169.701 88.5176C169.151 89.0338 168.385 89.292 167.403 89.292C166.557 89.292 165.85 89.0423 165.283 88.543C164.699 88.0436 164.433 87.4173 164.483 86.6641C164.517 86.0801 164.758 85.7881 165.207 85.7881ZM175.186 75.543C175.245 75.6784 175.266 75.8434 175.249 76.0381C175.241 76.2243 175.198 76.3851 175.122 76.5205C175.046 76.6559 174.957 76.7659 174.855 76.8506C174.661 77.0029 174.462 77.0791 174.259 77.0791C174.056 77.0791 173.895 77.0579 173.776 77.0156C173.658 76.9648 173.552 76.8971 173.459 76.8125C173.239 76.6094 173.129 76.3428 173.129 76.0127C173.129 75.6826 173.214 75.4456 173.383 75.3018C173.662 75.0563 173.941 74.9336 174.221 74.9336C174.678 74.9336 174.999 75.1367 175.186 75.543ZM174.779 80.3164C174.737 81.1966 174.695 82.0641 174.652 82.9189C174.61 83.7738 174.589 84.5439 174.589 85.2295C174.589 85.915 174.61 86.626 174.652 87.3623C174.695 88.0902 174.695 88.5091 174.652 88.6191C174.618 88.7207 174.568 88.8053 174.5 88.873C174.356 89.0169 174.2 89.0889 174.03 89.0889C173.861 89.0889 173.7 89.0254 173.548 88.8984C173.404 88.7715 173.349 88.5133 173.383 88.124C173.476 87.0491 173.522 85.9616 173.522 84.8613C173.522 83.7611 173.506 82.8724 173.472 82.1953C173.446 81.5098 173.425 80.9935 173.408 80.6465C173.4 80.2995 173.417 80.0752 173.459 79.9736C173.501 79.8721 173.561 79.7917 173.637 79.7324C173.781 79.597 173.941 79.5293 174.119 79.5293C174.297 79.5293 174.453 79.5928 174.589 79.7197C174.724 79.8467 174.788 80.0456 174.779 80.3164ZM179.883 88.5049C180.001 88.5133 180.221 88.5176 180.543 88.5176H181.254C182.76 88.5176 183.801 89.1439 184.377 90.3965C184.572 90.8027 184.669 91.2725 184.669 91.8057C184.669 92.3389 184.589 92.8128 184.428 93.2275C184.275 93.6422 184.047 94.0019 183.742 94.3066C183.099 94.9245 182.168 95.2334 180.949 95.2334C179.976 95.2334 179.189 94.9837 178.588 94.4844C177.979 93.9681 177.674 93.2487 177.674 92.3262C177.674 91.5052 177.894 90.7646 178.334 90.1045C178.486 89.8675 178.647 89.6728 178.816 89.5205C178.469 89.4359 178.19 89.2539 177.979 88.9746C177.708 88.6191 177.572 88.251 177.572 87.8701C177.572 87.4893 177.61 87.1761 177.687 86.9307C177.763 86.6768 177.868 86.444 178.004 86.2324C178.215 85.9023 178.452 85.6273 178.715 85.4072C178.309 85.1195 177.987 84.7259 177.75 84.2266C177.564 83.8288 177.471 83.3506 177.471 82.792C177.471 82.2249 177.564 81.7129 177.75 81.2559C177.945 80.7904 178.203 80.4053 178.524 80.1006C178.846 79.7874 179.214 79.5504 179.629 79.3896C180.044 79.2288 180.492 79.1442 180.975 79.1357C181.313 79.1273 181.643 79.1611 181.965 79.2373C182.007 78.6702 182.236 78.0651 182.65 77.4219C183.243 76.5163 183.92 76.0635 184.682 76.0635C185.079 76.0635 185.278 76.2708 185.278 76.6855C185.278 76.9394 185.092 77.1553 184.72 77.333C184.136 77.46 183.658 77.7689 183.285 78.2598C182.989 78.6406 182.824 79.0765 182.79 79.5674C183.019 79.6943 183.226 79.8509 183.412 80.0371C184.038 80.6634 184.352 81.5478 184.352 82.6904C184.352 83.6045 184.055 84.3662 183.463 84.9756C182.803 85.6527 181.935 85.9912 180.86 85.9912C180.31 85.9912 179.824 85.915 179.4 85.7627C179.231 85.9827 179.083 86.2747 178.956 86.6387C178.787 87.1211 178.702 87.4681 178.702 87.6797C178.702 88.2298 179.096 88.5049 179.883 88.5049ZM178.613 82.7793C178.613 83.4733 178.812 84.0234 179.21 84.4297C179.616 84.8275 180.094 85.0264 180.645 85.0264C181.203 85.0264 181.631 84.9587 181.927 84.8232C182.231 84.6878 182.481 84.5059 182.676 84.2773C183.065 83.8372 183.26 83.2363 183.26 82.4746C183.26 81.3913 182.786 80.6803 181.838 80.3418C181.559 80.2402 181.233 80.1894 180.86 80.1894C180.496 80.1894 180.171 80.2698 179.883 80.4307C179.595 80.583 179.358 80.7819 179.172 81.0273C178.799 81.5013 178.613 82.0853 178.613 82.7793ZM179.769 89.6094C179.642 89.6855 179.523 89.8125 179.413 89.9902C179.015 90.5996 178.816 91.2809 178.816 92.0342C178.816 93.4814 179.642 94.2051 181.292 94.2051C182.79 94.2051 183.539 93.4349 183.539 91.8945C183.539 91.2174 183.361 90.6588 183.006 90.2187C182.684 89.8125 182.312 89.6051 181.889 89.5967C181.474 89.5967 181.025 89.6009 180.543 89.6094C180.281 89.6178 180.022 89.6178 179.769 89.6094ZM193.162 82.8428L193.137 85.585C193.137 86.4906 193.166 87.3369 193.226 88.124C193.243 88.4118 193.171 88.6276 193.01 88.7715C192.857 88.9069 192.692 88.9746 192.515 88.9746C192.345 88.9746 192.189 88.9111 192.045 88.7842C191.91 88.6488 191.854 88.4499 191.88 88.1875C191.914 87.9167 191.939 87.6077 191.956 87.2607C191.981 86.9137 192.003 86.554 192.02 86.1816C192.053 85.4368 192.07 84.8232 192.07 84.3408C192.07 83.8499 192.062 83.4945 192.045 83.2744C192.028 83.0544 192.011 82.7285 191.994 82.2969C191.977 81.8568 191.863 81.4463 191.651 81.0654C191.44 80.6761 191.144 80.4814 190.763 80.4814C190.382 80.4814 190.052 80.5618 189.772 80.7226C189.493 80.8835 189.235 81.095 188.998 81.3574C188.516 81.9245 188.194 82.5846 188.033 83.3379C188.025 83.5749 188.021 83.8076 188.021 84.0361V84.6963C188.021 86.2282 188.037 87.2438 188.071 87.7432C188.105 88.234 188.076 88.5641 187.982 88.7334C187.889 88.8942 187.724 88.9746 187.487 88.9746C187.259 88.9746 187.077 88.9027 186.941 88.7588C186.814 88.6064 186.764 88.3314 186.789 87.9336C186.874 86.8418 186.916 85.7204 186.916 84.5693C186.916 82.5973 186.886 81.1501 186.827 80.2275C186.793 79.6605 187.03 79.3769 187.538 79.3769C187.8 79.3769 187.965 79.4573 188.033 79.6182C188.109 79.779 188.135 79.9482 188.109 80.126C188.092 80.3037 188.08 80.456 188.071 80.583C188.071 80.71 188.071 80.8411 188.071 80.9766C188.071 81.112 188.071 81.2347 188.071 81.3447C188.571 80.3968 189.235 79.7747 190.064 79.4785C190.327 79.3854 190.593 79.3389 190.864 79.3389C191.135 79.3389 191.414 79.4023 191.702 79.5293C191.99 79.6478 192.24 79.8467 192.451 80.126C192.925 80.7353 193.162 81.6409 193.162 82.8428ZM203.141 87.3496C203.318 87.5781 203.543 87.7601 203.813 87.8955C204.084 88.0225 204.486 88.0859 205.02 88.0859C205.553 88.0859 206.086 87.8828 206.619 87.4766C207.042 87.1549 207.372 86.7318 207.609 86.207C207.542 86.1055 207.47 85.9954 207.394 85.8769C207.233 85.623 207.072 85.3734 206.911 85.1279C206.75 84.874 206.598 84.637 206.454 84.417C206.319 84.1885 206.2 83.998 206.099 83.8457C205.997 83.6934 205.87 83.5072 205.718 83.2871C205.574 83.0586 205.422 82.8216 205.261 82.5762C204.973 82.1445 204.723 81.7552 204.512 81.4082C204.376 81.6113 204.237 81.8229 204.093 82.043C203.847 82.3984 203.615 82.7708 203.395 83.1601C202.87 84.0911 202.607 84.8105 202.607 85.3184C202.607 85.8177 202.65 86.224 202.734 86.5371C202.827 86.8418 202.963 87.1126 203.141 87.3496ZM202.417 73.3594C202.417 74.0872 202.485 74.7135 202.62 75.2383C202.756 75.7545 202.938 76.2539 203.166 76.7363C203.403 77.2187 203.674 77.7012 203.979 78.1836C204.215 78.5729 204.461 78.9919 204.715 79.4404C204.884 79.2034 205.062 78.9707 205.248 78.7422C205.493 78.4375 205.73 78.1286 205.959 77.8154C206.196 77.5023 206.416 77.1807 206.619 76.8506C206.822 76.5205 207 76.1608 207.152 75.7715C207.482 74.942 207.647 74.0957 207.647 73.2324C207.647 72.3691 207.588 71.692 207.47 71.2012C207.351 70.7103 207.182 70.304 206.962 69.9824C206.53 69.3646 205.912 69.0557 205.108 69.0557C204.397 69.0557 203.792 69.39 203.293 70.0586C202.709 70.8626 202.417 71.9629 202.417 73.3594ZM209.59 81.5605L209.603 81.9668C209.603 83.5833 209.361 84.9629 208.879 86.1055C209.438 86.8926 210.021 87.5443 210.631 88.0605C210.859 88.2552 210.974 88.4541 210.974 88.6572C210.974 88.8519 210.914 89.0085 210.796 89.1269C210.686 89.2539 210.559 89.3174 210.415 89.3174C210.11 89.3174 209.856 89.1523 209.653 88.8223C209.315 88.3144 209.019 87.8913 208.765 87.5527C208.595 87.3242 208.46 87.1422 208.358 87.0068C207.978 87.6585 207.495 88.179 206.911 88.5684C206.234 89.0085 205.561 89.2285 204.893 89.2285C204.232 89.2285 203.699 89.1439 203.293 88.9746C202.887 88.8053 202.54 88.5641 202.252 88.251C201.668 87.5993 201.376 86.7233 201.376 85.623C201.376 84.5059 202.015 83.1009 203.293 81.4082C203.538 81.0866 203.763 80.7777 203.966 80.4814C203.644 79.9398 203.335 79.4277 203.039 78.9453C202.675 78.3782 202.358 77.8197 202.087 77.2695C201.486 76.0592 201.186 74.9251 201.186 73.8672C201.186 72.8008 201.296 71.8952 201.516 71.1504C201.744 70.4056 202.04 69.7878 202.404 69.2969C203.141 68.3236 204.063 67.8369 205.172 67.8369C206.882 67.8369 207.99 68.7764 208.498 70.6553C208.676 71.3154 208.765 72.0348 208.765 72.8135C208.765 73.5921 208.705 74.2438 208.587 74.7685C208.477 75.2848 208.325 75.7672 208.13 76.2158C207.935 76.6559 207.707 77.0706 207.444 77.46C207.19 77.8408 206.924 78.209 206.645 78.5644C206.374 78.9115 206.099 79.2542 205.819 79.5928C205.616 79.8382 205.426 80.0837 205.248 80.3291C205.477 80.7269 205.671 81.057 205.832 81.3193C206.027 81.6494 206.192 81.9329 206.327 82.1699C206.463 82.3984 206.581 82.6016 206.683 82.7793C206.793 82.957 206.924 83.1686 207.076 83.4141C207.237 83.6595 207.398 83.9092 207.559 84.1631C207.796 84.527 208.011 84.8486 208.206 85.1279C208.375 84.5778 208.46 83.9769 208.46 83.3252C208.46 82.5381 208.439 81.9964 208.396 81.7002C208.354 81.3955 208.396 81.1712 208.523 81.0273C208.65 80.875 208.794 80.7988 208.955 80.7988C209.116 80.7988 209.26 80.8623 209.387 80.9893C209.514 81.1077 209.581 81.2982 209.59 81.5605ZM228.023 73.2324C228.294 74.265 228.43 75.4075 228.43 76.6601C228.43 77.9043 228.324 79.0638 228.112 80.1387C227.901 81.2051 227.604 82.1953 227.224 83.1094C226.843 84.015 226.386 84.8359 225.853 85.5723C225.328 86.3001 224.744 86.9222 224.101 87.4385C222.772 88.5049 221.329 89.0381 219.771 89.0381C219.526 89.0381 219.365 88.9619 219.289 88.8096C219.221 88.6488 219.188 88.4583 219.188 88.2383V87.1465C219.188 86.6217 219.183 85.987 219.175 85.2422C219.175 84.4889 219.171 83.6553 219.162 82.7412C219.162 81.8187 219.154 80.8665 219.137 79.8848C219.128 78.8945 219.116 77.9001 219.099 76.9014C219.09 75.8942 219.077 74.9336 219.061 74.0195C219.01 72.1237 218.951 70.6299 218.883 69.5381C218.84 68.9626 219.094 68.6409 219.645 68.5732C220.457 68.4547 221.126 68.3955 221.65 68.3955C225.053 68.3955 227.177 70.0078 228.023 73.2324ZM220.457 87.8447C221.413 87.8109 222.366 87.4004 223.313 86.6133C225.074 85.1491 226.25 82.9655 226.843 80.0625C227.046 79.0638 227.147 77.9339 227.147 76.6728C227.147 75.4033 226.991 74.3031 226.678 73.3721C226.373 72.4326 225.975 71.6836 225.484 71.125C224.562 70.0755 223.373 69.5508 221.917 69.5508C221.282 69.5508 220.766 69.6185 220.368 69.7539C220.3 70.6256 220.267 71.8486 220.267 73.4228C220.267 75.3102 220.271 76.7532 220.279 77.7519C220.288 78.7506 220.296 79.7282 220.305 80.6846C220.322 81.6409 220.334 82.5592 220.343 83.4394C220.36 84.3112 220.377 85.0941 220.394 85.7881C220.419 86.6598 220.44 87.3454 220.457 87.8447ZM236.085 83.5156C236.102 82.043 235.793 81.0358 235.158 80.4941C234.904 80.2656 234.595 80.1514 234.231 80.1514C233.868 80.1514 233.567 80.2191 233.33 80.3545C233.093 80.4899 232.882 80.6719 232.695 80.9004C232.518 81.1289 232.365 81.3913 232.238 81.6875C232.12 81.9753 232.022 82.2715 231.946 82.5762C231.87 82.8978 231.815 83.2152 231.781 83.5283L233.521 83.6045C234.655 83.6045 235.509 83.5749 236.085 83.5156ZM231.73 84.6201C231.747 85.7881 231.959 86.681 232.365 87.2988C232.805 87.959 233.427 88.2891 234.231 88.2891C234.968 88.2891 235.505 87.9251 235.844 87.1973C236.055 86.7233 236.318 86.4863 236.631 86.4863C236.775 86.4863 236.893 86.5329 236.986 86.626C237.088 86.7191 237.134 86.8841 237.126 87.1211C237.118 87.3496 237.033 87.5993 236.872 87.8701C236.72 88.1409 236.504 88.3822 236.225 88.5937C235.615 89.0677 234.883 89.3047 234.028 89.3047C233.106 89.3047 232.31 88.9111 231.642 88.124C230.939 87.2946 230.588 86.3086 230.588 85.166C230.588 84.0234 230.685 83.0967 230.88 82.3857C231.083 81.6663 231.35 81.0697 231.68 80.5957C232.323 79.6393 233.127 79.1611 234.092 79.1611C235.327 79.1611 236.195 79.6478 236.694 80.6211C237.041 81.2982 237.228 82.2926 237.253 83.6045C237.261 83.9769 237.202 84.2266 237.075 84.3535C236.948 84.4805 236.69 84.5439 236.301 84.5439L231.73 84.6201ZM243.131 88.6191C243.038 88.9069 242.818 89.0508 242.471 89.0508C242.132 89.0508 241.925 88.9323 241.849 88.6953C241.62 88.0013 241.4 87.3115 241.188 86.626C240.977 85.9404 240.761 85.2676 240.541 84.6074C240.042 83.0501 239.555 81.7637 239.081 80.748C238.971 80.4857 238.916 80.2529 238.916 80.0498C238.916 79.8382 238.975 79.6689 239.094 79.542C239.221 79.415 239.36 79.3516 239.513 79.3516C239.674 79.3516 239.839 79.4108 240.008 79.5293C240.177 79.6393 240.334 79.9355 240.478 80.418C240.621 80.8919 240.803 81.5351 241.023 82.3476C241.252 83.1517 241.472 83.9303 241.684 84.6836C242.048 86.0039 242.323 86.956 242.509 87.54C242.627 87.1084 242.75 86.6979 242.877 86.3086C243.046 85.7669 243.224 85.1999 243.41 84.6074C243.859 83.1686 244.252 81.6621 244.591 80.0879C244.701 79.6139 244.946 79.3769 245.327 79.3769C245.496 79.3769 245.64 79.432 245.759 79.542C245.886 79.6435 245.949 79.7747 245.949 79.9355C245.949 80.1725 245.865 80.5111 245.695 80.9512C245.526 81.3913 245.323 81.9414 245.086 82.6016C244.849 83.2617 244.616 83.9303 244.388 84.6074C243.863 86.1647 243.444 87.5019 243.131 88.6191ZM253.097 83.5156C253.114 82.043 252.805 81.0358 252.17 80.4941C251.916 80.2656 251.607 80.1514 251.243 80.1514C250.879 80.1514 250.579 80.2191 250.342 80.3545C250.105 80.4899 249.893 80.6719 249.707 80.9004C249.529 81.1289 249.377 81.3913 249.25 81.6875C249.132 81.9753 249.034 82.2715 248.958 82.5762C248.882 82.8978 248.827 83.2152 248.793 83.5283L250.532 83.6045C251.666 83.6045 252.521 83.5749 253.097 83.5156ZM248.742 84.6201C248.759 85.7881 248.971 86.681 249.377 87.2988C249.817 87.959 250.439 88.2891 251.243 88.2891C251.979 88.2891 252.517 87.9251 252.855 87.1973C253.067 86.7233 253.329 86.4863 253.643 86.4863C253.786 86.4863 253.905 86.5329 253.998 86.626C254.1 86.7191 254.146 86.8841 254.138 87.1211C254.129 87.3496 254.045 87.5993 253.884 87.8701C253.731 88.1409 253.516 88.3822 253.236 88.5937C252.627 89.0677 251.895 89.3047 251.04 89.3047C250.118 89.3047 249.322 88.9111 248.653 88.124C247.951 87.2946 247.6 86.3086 247.6 85.166C247.6 84.0234 247.697 83.0967 247.892 82.3857C248.095 81.6663 248.361 81.0697 248.691 80.5957C249.335 79.6393 250.139 79.1611 251.104 79.1611C252.339 79.1611 253.207 79.6478 253.706 80.6211C254.053 81.2982 254.239 82.2926 254.265 83.6045C254.273 83.9769 254.214 84.2266 254.087 84.3535C253.96 84.4805 253.702 84.5439 253.312 84.5439L248.742 84.6201ZM258.505 72.3945C258.488 73.4271 258.471 74.5443 258.454 75.7461C258.446 76.9479 258.441 78.8014 258.441 81.3066C258.441 83.8118 258.475 86.1309 258.543 88.2637C258.551 88.543 258.484 88.7545 258.34 88.8984C258.204 89.0423 258.039 89.1143 257.845 89.1143C257.65 89.1143 257.477 89.0508 257.324 88.9238C257.172 88.7884 257.108 88.4879 257.134 88.0225C257.159 87.557 257.185 86.8587 257.21 85.9277C257.244 84.9883 257.273 83.9726 257.299 82.8809C257.341 80.4772 257.362 78.4671 257.362 76.8506C257.362 75.2256 257.358 74.0068 257.35 73.1943C257.35 72.3818 257.345 71.6328 257.337 70.9473C257.32 69.6608 257.278 68.4844 257.21 67.418C257.193 67.1471 257.248 66.9398 257.375 66.7959C257.502 66.6435 257.663 66.5674 257.857 66.5674C258.052 66.5674 258.23 66.6435 258.391 66.7959C258.56 66.9398 258.636 67.2318 258.619 67.6719C258.602 68.112 258.581 68.751 258.556 69.5889C258.539 70.4268 258.522 71.362 258.505 72.3945ZM265.957 80.456C265.678 80.2529 265.348 80.1514 264.967 80.1514C264.594 80.1514 264.252 80.2572 263.938 80.4687C263.634 80.6719 263.376 80.9596 263.164 81.332C262.732 82.0768 262.517 83.1009 262.517 84.4043C262.517 85.6992 262.724 86.6556 263.139 87.2734C263.553 87.8913 264.108 88.2002 264.802 88.2002C265.563 88.2002 266.173 87.7643 266.63 86.8926C267.036 86.1139 267.239 85.1575 267.239 84.0234C267.239 82.2799 266.812 81.0908 265.957 80.456ZM264.789 89.2793C264.307 89.2878 263.854 89.1904 263.431 88.9873C263.016 88.7757 262.656 88.4499 262.352 88.0098C261.683 87.0788 261.349 85.7542 261.349 84.0361C261.349 82.4958 261.708 81.2812 262.428 80.3926C263.105 79.5462 264.002 79.123 265.119 79.123C266.059 79.123 266.837 79.5293 267.455 80.3418C268.09 81.2051 268.407 82.39 268.407 83.8965C268.407 85.5723 268.039 86.9095 267.303 87.9082C266.643 88.8053 265.805 89.2624 264.789 89.2793ZM272.394 89.2666C272.368 89.8421 272.355 90.4134 272.355 90.9805C272.355 91.5475 272.419 92.8467 272.546 94.8779C272.546 95.1995 272.372 95.4154 272.025 95.5254C271.932 95.5508 271.839 95.5635 271.746 95.5635C271.661 95.5635 271.577 95.5465 271.492 95.5127C271.416 95.4873 271.348 95.4407 271.289 95.373C271.145 95.2292 271.086 94.9879 271.111 94.6494C271.196 93.5068 271.238 91.8141 271.238 89.5713C271.238 85.585 271.192 82.5212 271.099 80.3799C271.082 80.1006 271.141 79.8763 271.276 79.707C271.42 79.5378 271.59 79.4531 271.784 79.4531C271.979 79.4531 272.135 79.5251 272.254 79.6689C272.381 79.8044 272.436 79.9863 272.419 80.2148C272.394 80.5872 272.377 80.9131 272.368 81.1924C272.664 80.6507 273.058 80.1979 273.549 79.834C274.167 79.3685 274.861 79.1357 275.631 79.1357C276.401 79.1357 277.002 79.4235 277.434 79.999C277.874 80.5745 278.094 81.3151 278.094 82.2207C278.094 83.1263 278.001 83.8965 277.814 84.5312C277.628 85.1575 277.379 85.7204 277.065 86.2197C276.761 86.7191 276.405 87.1549 275.999 87.5273C275.601 87.8997 275.191 88.2129 274.768 88.4668C273.93 88.9661 273.138 89.2327 272.394 89.2666ZM272.368 83.4394C272.343 85.6654 272.355 87.2353 272.406 88.1494C272.736 88.1917 273.117 88.1156 273.549 87.9209C274.099 87.6754 274.556 87.4046 274.92 87.1084C275.284 86.8122 275.614 86.4482 275.91 86.0166C276.587 85.0264 276.926 83.8457 276.926 82.4746C276.926 81.7383 276.773 81.1839 276.469 80.8115C276.164 80.4307 275.8 80.2402 275.377 80.2402C274.962 80.2402 274.581 80.346 274.234 80.5576C273.887 80.7607 273.583 81.0189 273.32 81.332C272.779 81.9922 272.461 82.6947 272.368 83.4394ZM281.902 84.0996V85.001C281.902 85.4326 281.932 86.4863 281.991 88.1621C281.991 88.5514 281.826 88.8138 281.496 88.9492C281.403 88.9831 281.297 89 281.179 89C281.06 89 280.942 88.9365 280.823 88.8096C280.705 88.6826 280.65 88.4245 280.658 88.0351C280.667 87.6458 280.675 87.2396 280.684 86.8164C280.701 86.3848 280.717 85.9785 280.734 85.5976C280.76 84.692 280.772 83.9811 280.772 83.4648C280.772 82.6354 280.739 81.6113 280.671 80.3926C280.654 80.1302 280.713 79.9186 280.849 79.7578C280.993 79.597 281.153 79.5166 281.331 79.5166C281.517 79.5166 281.691 79.597 281.852 79.7578C282.012 79.9101 282.084 80.0752 282.067 80.2529C282.05 80.4307 282.038 80.5872 282.029 80.7226C282.021 80.8496 282.012 80.985 282.004 81.1289C282.004 81.1966 282 81.2601 281.991 81.3193C282.482 80.4137 283.075 79.8297 283.769 79.5674C284.014 79.4743 284.272 79.4277 284.543 79.4277C284.814 79.4277 285.068 79.4912 285.305 79.6182C285.55 79.7366 285.762 79.9059 285.939 80.126C286.193 80.4307 286.375 80.8242 286.485 81.3066C287.179 80.054 288.026 79.4277 289.024 79.4277C290.032 79.4277 290.7 80.054 291.03 81.3066C291.149 81.7552 291.208 82.3011 291.208 82.9443V84.4932C291.208 85.9743 291.246 87.1973 291.322 88.1621C291.339 88.4329 291.271 88.6403 291.119 88.7842C290.975 88.9281 290.836 89 290.7 89C290.573 89 290.463 88.9831 290.37 88.9492C290.285 88.9154 290.209 88.8646 290.142 88.7969C289.972 88.6445 289.9 88.4499 289.926 88.2129C289.951 87.9674 289.972 87.6924 289.989 87.3877C290.006 87.0745 290.019 86.7487 290.027 86.4101C290.061 85.6061 290.078 84.984 290.078 84.5439C290.078 84.1038 290.082 83.7653 290.091 83.5283C290.099 83.2829 290.095 82.9189 290.078 82.4365C290.07 81.9541 289.955 81.5309 289.735 81.167C289.524 80.7946 289.244 80.6084 288.897 80.6084C288.559 80.6084 288.267 80.6846 288.021 80.8369C287.776 80.9893 287.564 81.1966 287.387 81.459C287.014 82.0006 286.786 82.6862 286.701 83.5156V84.4043C286.701 85.86 286.731 87.1126 286.79 88.1621C286.799 88.4329 286.722 88.6403 286.562 88.7842C286.401 88.9281 286.231 89 286.054 89C285.884 89 285.728 88.9365 285.584 88.8096C285.44 88.6826 285.381 88.4879 285.406 88.2256C285.432 87.9632 285.453 87.6712 285.47 87.3496C285.487 87.028 285.499 86.6894 285.508 86.334C285.542 85.5215 285.559 84.8952 285.559 84.4551V83.4141C285.559 83.1686 285.55 82.9401 285.533 82.7285C285.516 82.026 285.394 81.4971 285.165 81.1416C284.937 80.7861 284.645 80.6084 284.289 80.6084C283.942 80.6084 283.637 80.6973 283.375 80.875C283.121 81.0443 282.897 81.2685 282.702 81.5478C282.33 82.081 282.067 82.7539 281.915 83.5664C281.907 83.7611 281.902 83.9388 281.902 84.0996ZM299.308 83.5156C299.325 82.043 299.016 81.0358 298.381 80.4941C298.127 80.2656 297.818 80.1514 297.454 80.1514C297.09 80.1514 296.79 80.2191 296.553 80.3545C296.316 80.4899 296.104 80.6719 295.918 80.9004C295.74 81.1289 295.588 81.3913 295.461 81.6875C295.342 81.9753 295.245 82.2715 295.169 82.5762C295.093 82.8978 295.038 83.2152 295.004 83.5283L296.743 83.6045C297.877 83.6045 298.732 83.5749 299.308 83.5156ZM294.953 84.6201C294.97 85.7881 295.182 86.681 295.588 87.2988C296.028 87.959 296.65 88.2891 297.454 88.2891C298.19 88.2891 298.728 87.9251 299.066 87.1973C299.278 86.7233 299.54 86.4863 299.854 86.4863C299.997 86.4863 300.116 86.5329 300.209 86.626C300.311 86.7191 300.357 86.8841 300.349 87.1211C300.34 87.3496 300.256 87.5993 300.095 87.8701C299.942 88.1409 299.727 88.3822 299.447 88.5937C298.838 89.0677 298.106 89.3047 297.251 89.3047C296.328 89.3047 295.533 88.9111 294.864 88.124C294.162 87.2946 293.811 86.3086 293.811 85.166C293.811 84.0234 293.908 83.0967 294.103 82.3857C294.306 81.6663 294.572 81.0697 294.902 80.5957C295.546 79.6393 296.35 79.1611 297.314 79.1611C298.55 79.1611 299.418 79.6478 299.917 80.6211C300.264 81.2982 300.45 82.2926 300.476 83.6045C300.484 83.9769 300.425 84.2266 300.298 84.3535C300.171 84.4805 299.913 84.5439 299.523 84.5439L294.953 84.6201ZM309.553 82.8428L309.527 85.585C309.527 86.4906 309.557 87.3369 309.616 88.124C309.633 88.4118 309.561 88.6276 309.4 88.7715C309.248 88.9069 309.083 88.9746 308.905 88.9746C308.736 88.9746 308.579 88.9111 308.436 88.7842C308.3 88.6488 308.245 88.4499 308.271 88.1875C308.304 87.9167 308.33 87.6077 308.347 87.2607C308.372 86.9137 308.393 86.554 308.41 86.1816C308.444 85.4368 308.461 84.8232 308.461 84.3408C308.461 83.8499 308.452 83.4945 308.436 83.2744C308.419 83.0544 308.402 82.7285 308.385 82.2969C308.368 81.8568 308.254 81.4463 308.042 81.0654C307.83 80.6761 307.534 80.4814 307.153 80.4814C306.772 80.4814 306.442 80.5618 306.163 80.7226C305.884 80.8835 305.626 81.095 305.389 81.3574C304.906 81.9245 304.585 82.5846 304.424 83.3379C304.415 83.5749 304.411 83.8076 304.411 84.0361V84.6963C304.411 86.2282 304.428 87.2438 304.462 87.7432C304.496 88.234 304.466 88.5641 304.373 88.7334C304.28 88.8942 304.115 88.9746 303.878 88.9746C303.649 88.9746 303.467 88.9027 303.332 88.7588C303.205 88.6064 303.154 88.3314 303.18 87.9336C303.264 86.8418 303.307 85.7204 303.307 84.5693C303.307 82.5973 303.277 81.1501 303.218 80.2275C303.184 79.6605 303.421 79.3769 303.929 79.3769C304.191 79.3769 304.356 79.4573 304.424 79.6182C304.5 79.779 304.525 79.9482 304.5 80.126C304.483 80.3037 304.47 80.456 304.462 80.583C304.462 80.71 304.462 80.8411 304.462 80.9766C304.462 81.112 304.462 81.2347 304.462 81.3447C304.961 80.3968 305.626 79.7747 306.455 79.4785C306.717 79.3854 306.984 79.3389 307.255 79.3389C307.526 79.3389 307.805 79.4023 308.093 79.5293C308.381 79.6478 308.63 79.8467 308.842 80.126C309.316 80.7353 309.553 81.6409 309.553 82.8428ZM312.917 76.9648C312.917 76.6686 312.989 76.4486 313.133 76.3047C313.277 76.1608 313.433 76.0889 313.603 76.0889C313.772 76.0889 313.924 76.1608 314.06 76.3047C314.195 76.4486 314.246 76.6686 314.212 76.9648C314.136 77.7519 314.089 78.666 314.072 79.707C314.766 79.707 315.291 79.6859 315.646 79.6435C316.002 79.6012 316.256 79.5801 316.408 79.5801C316.984 79.5631 317.271 79.7747 317.271 80.2148C317.271 80.4687 317.123 80.6465 316.827 80.748C316.726 80.7819 316.607 80.7946 316.472 80.7861C316.336 80.7777 316.188 80.7734 316.027 80.7734C315.875 80.765 315.723 80.7607 315.57 80.7607C315.308 80.7607 315.054 80.7607 314.809 80.7607C314.572 80.7607 314.36 80.765 314.174 80.7734C314.14 80.7734 314.102 80.7734 314.06 80.7734C314.06 80.7904 314.06 80.8031 314.06 80.8115C314.06 84.3154 314.11 86.2917 314.212 86.7402C314.313 87.1888 314.424 87.5104 314.542 87.7051C314.754 88.0436 315.024 88.2129 315.354 88.2129C315.888 88.2129 316.247 87.9505 316.434 87.4258C316.51 87.0026 316.726 86.791 317.081 86.791C317.208 86.791 317.318 86.846 317.411 86.956C317.513 87.0576 317.563 87.21 317.563 87.4131C317.563 87.6162 317.5 87.8363 317.373 88.0732C317.246 88.3102 317.077 88.5176 316.865 88.6953C316.4 89.0846 315.879 89.2793 315.304 89.2793C314.254 89.2793 313.531 88.6995 313.133 87.54C312.989 87.1169 312.917 86.5963 312.917 85.9785V80.8623C312.739 80.8708 312.545 80.8835 312.333 80.9004C312.071 80.9088 311.872 80.8454 311.736 80.71C311.609 80.5661 311.546 80.418 311.546 80.2656C311.546 80.1048 311.614 79.9652 311.749 79.8467C311.884 79.7197 312.088 79.6562 312.358 79.6562L312.917 79.6689V76.9648Z" fill="#666666"/>
<path d="M156.346 32.6582C156.452 32.7871 156.516 32.9453 156.54 33.1328C156.563 33.3203 156.434 33.748 156.153 34.416C155.872 35.0722 155.262 36.2441 154.325 37.9316C153.458 39.4902 152.456 41.3066 151.319 43.3808C152.022 45.4199 152.813 47.5175 153.692 49.6738C154.63 51.9941 155.297 53.6464 155.696 54.6308C156.645 56.9863 157.231 58.4335 157.454 58.9726C157.676 59.5 157.776 59.8574 157.753 60.0449C157.729 60.2207 157.671 60.3789 157.577 60.5195C157.378 60.8007 157.143 60.9414 156.874 60.9414C156.381 60.9414 156.042 60.7011 155.854 60.2207C153.358 53.0371 151.53 47.9804 150.37 45.0507C148.975 47.664 147.774 49.7675 146.766 51.3613C146.766 54.83 146.79 57.6367 146.837 59.7812C146.848 60.1562 146.743 60.4433 146.52 60.6425C146.309 60.8418 146.075 60.9414 145.817 60.9414C145.559 60.9414 145.325 60.8535 145.114 60.6777C144.915 60.5019 144.827 60.0918 144.85 59.4472C144.874 58.791 144.903 57.8535 144.938 56.6347C144.973 55.416 145.008 54.1152 145.044 52.7324C145.114 49.9668 145.149 47.5 145.149 45.332C145.149 43.1523 145.143 41.5761 145.131 40.6035C145.12 39.6191 145.102 38.7226 145.079 37.914C145.02 36.5429 144.915 35.0664 144.762 33.4843C144.727 33.1093 144.821 32.8339 145.044 32.6582C145.278 32.4707 145.536 32.3769 145.817 32.3769C146.11 32.3769 146.374 32.4707 146.608 32.6582C146.854 32.8339 146.971 33.1093 146.96 33.4843C146.831 36.496 146.766 41.6171 146.766 48.8476C149.626 43.9726 151.946 39.414 153.727 35.1718C154.079 34.3398 154.331 33.7011 154.483 33.2558C154.647 32.7988 154.811 32.5117 154.975 32.3945C155.151 32.2773 155.327 32.2187 155.503 32.2187C155.678 32.2187 155.837 32.2597 155.977 32.3418C156.13 32.4121 156.253 32.5175 156.346 32.6582ZM167.403 57.3378C167.391 56.6933 167.391 55.9023 167.403 54.9648C166.899 54.789 166.26 54.7011 165.487 54.7011C164.444 54.7011 163.589 54.9531 162.921 55.457C162.592 55.7148 162.329 56.0312 162.13 56.4062C161.93 56.7695 161.831 57.2441 161.831 57.83C161.831 58.4043 162.03 58.8847 162.428 59.2714C162.827 59.6582 163.413 59.8515 164.186 59.8515C164.96 59.8515 165.821 59.3242 166.77 58.2695C167.04 57.9765 167.251 57.666 167.403 57.3378ZM168.528 61.3105C167.825 61.3105 167.473 60.7773 167.473 59.7109C167.473 59.6406 167.467 59.4414 167.456 59.1132C167.35 59.2421 167.233 59.3828 167.104 59.5351C166.049 60.7304 164.901 61.3281 163.659 61.3281C162.663 61.3281 161.837 61.0117 161.18 60.3789C160.501 59.7226 160.161 58.8847 160.161 57.8652C160.161 56.4472 160.712 55.3046 161.813 54.4375C162.305 54.0507 162.856 53.7578 163.465 53.5585C164.087 53.3593 164.778 53.2597 165.54 53.2597C166.172 53.2597 166.794 53.3652 167.403 53.5761V51.7128C167.403 50.6816 167.186 49.9082 166.753 49.3925C166.331 48.8769 165.891 48.6191 165.434 48.6191C164.977 48.6191 164.602 48.6777 164.309 48.7949C164.028 48.9121 163.776 49.082 163.553 49.3046C163.061 49.7851 162.78 50.3828 162.71 51.0976C162.745 51.4726 162.669 51.7363 162.481 51.8886C162.294 52.0293 162.089 52.0996 161.866 52.0996C161.233 52.0996 160.928 51.6777 160.952 50.8339C160.975 49.955 161.421 49.1464 162.288 48.4082C163.178 47.6464 164.174 47.2656 165.276 47.2656C166.917 47.2656 168.024 48.08 168.598 49.7089C168.797 50.2949 168.897 50.9394 168.897 51.6425V53.4531L168.88 56.4062V57.9707C168.88 58.6738 168.962 59.2421 169.126 59.6757C169.301 60.1093 169.389 60.4199 169.389 60.6074C169.389 60.7832 169.301 60.9414 169.126 61.082C168.95 61.2343 168.751 61.3105 168.528 61.3105ZM175.366 37.9492C175.342 39.3789 175.319 40.9257 175.296 42.5898C175.284 44.2539 175.278 46.8203 175.278 50.289C175.278 53.7578 175.325 56.9687 175.419 59.9218C175.43 60.3085 175.337 60.6015 175.137 60.8007C174.95 61 174.721 61.0996 174.452 61.0996C174.182 61.0996 173.942 61.0117 173.731 60.8359C173.52 60.6484 173.432 60.2324 173.467 59.5878C173.503 58.9433 173.538 57.9765 173.573 56.6875C173.62 55.3867 173.661 53.9804 173.696 52.4687C173.755 49.1406 173.784 46.3574 173.784 44.1191C173.784 41.8691 173.778 40.1816 173.766 39.0566C173.766 37.9316 173.76 36.8945 173.749 35.9453C173.725 34.164 173.667 32.5351 173.573 31.0585C173.549 30.6835 173.626 30.3964 173.801 30.1972C173.977 29.9863 174.2 29.8808 174.469 29.8808C174.739 29.8808 174.985 29.9863 175.208 30.1972C175.442 30.3964 175.547 30.8007 175.524 31.4101C175.501 32.0195 175.471 32.9043 175.436 34.0644C175.413 35.2246 175.389 36.5195 175.366 37.9492ZM182.837 42.3085C182.919 42.496 182.948 42.7246 182.924 42.9941C182.913 43.2519 182.854 43.4746 182.749 43.6621C182.643 43.8496 182.52 44.0019 182.38 44.1191C182.11 44.33 181.835 44.4355 181.553 44.4355C181.272 44.4355 181.049 44.4062 180.885 44.3476C180.721 44.2773 180.575 44.1835 180.446 44.0664C180.141 43.7851 179.989 43.416 179.989 42.9589C179.989 42.5019 180.106 42.1738 180.34 41.9746C180.727 41.6347 181.114 41.4648 181.501 41.4648C182.133 41.4648 182.579 41.746 182.837 42.3085ZM182.274 48.9179C182.215 50.1367 182.157 51.3378 182.098 52.5214C182.04 53.705 182.01 54.7714 182.01 55.7207C182.01 56.6699 182.04 57.6543 182.098 58.6738C182.157 59.6816 182.157 60.2617 182.098 60.414C182.051 60.5546 181.981 60.6718 181.887 60.7656C181.688 60.9648 181.471 61.0644 181.237 61.0644C181.003 61.0644 180.78 60.9765 180.569 60.8007C180.37 60.625 180.294 60.2675 180.34 59.7285C180.469 58.2402 180.534 56.7343 180.534 55.2109C180.534 53.6875 180.51 52.457 180.464 51.5195C180.428 50.5703 180.399 49.8554 180.376 49.375C180.364 48.8945 180.387 48.5839 180.446 48.4433C180.505 48.3027 180.587 48.1914 180.692 48.1093C180.891 47.9218 181.114 47.8281 181.36 47.8281C181.606 47.8281 181.823 47.916 182.01 48.0918C182.198 48.2675 182.286 48.5429 182.274 48.9179ZM195.774 52.416L195.739 56.2128C195.739 57.4668 195.78 58.6386 195.862 59.7285C195.885 60.1269 195.786 60.4257 195.563 60.625C195.352 60.8125 195.124 60.9062 194.878 60.9062C194.643 60.9062 194.426 60.8183 194.227 60.6425C194.04 60.455 193.964 60.1796 193.999 59.8164C194.046 59.4414 194.081 59.0136 194.104 58.5332C194.139 58.0527 194.169 57.5546 194.192 57.039C194.239 56.0078 194.262 55.1582 194.262 54.4902C194.262 53.8105 194.251 53.3183 194.227 53.0136C194.204 52.7089 194.18 52.2578 194.157 51.6601C194.133 51.0507 193.975 50.4824 193.682 49.955C193.389 49.416 192.979 49.1464 192.452 49.1464C191.924 49.1464 191.467 49.2578 191.081 49.4804C190.694 49.7031 190.337 49.996 190.008 50.3593C189.34 51.1445 188.895 52.0585 188.672 53.1015C188.661 53.4296 188.655 53.7519 188.655 54.0683V54.9824C188.655 57.1035 188.678 58.5097 188.725 59.2011C188.772 59.8808 188.731 60.3378 188.602 60.5722C188.473 60.7949 188.245 60.9062 187.917 60.9062C187.6 60.9062 187.348 60.8066 187.161 60.6074C186.985 60.3964 186.915 60.0156 186.95 59.4648C187.067 57.9531 187.126 56.4003 187.126 54.8066C187.126 52.0761 187.085 50.0722 187.003 48.7949C186.956 48.0097 187.284 47.6171 187.987 47.6171C188.35 47.6171 188.579 47.7285 188.672 47.9511C188.778 48.1738 188.813 48.4082 188.778 48.6543C188.755 48.9003 188.737 49.1113 188.725 49.2871C188.725 49.4628 188.725 49.6445 188.725 49.832C188.725 50.0195 188.725 50.1894 188.725 50.3418C189.417 49.0293 190.337 48.1679 191.485 47.7578C191.848 47.6289 192.217 47.5644 192.592 47.5644C192.967 47.5644 193.354 47.6523 193.753 47.8281C194.151 47.9921 194.497 48.2675 194.79 48.6543C195.446 49.498 195.774 50.7519 195.774 52.416ZM206.497 57.3378C206.485 56.6933 206.485 55.9023 206.497 54.9648C205.993 54.789 205.354 54.7011 204.581 54.7011C203.538 54.7011 202.682 54.9531 202.014 55.457C201.686 55.7148 201.422 56.0312 201.223 56.4062C201.024 56.7695 200.924 57.2441 200.924 57.83C200.924 58.4043 201.124 58.8847 201.522 59.2714C201.921 59.6582 202.506 59.8515 203.28 59.8515C204.053 59.8515 204.915 59.3242 205.864 58.2695C206.133 57.9765 206.344 57.666 206.497 57.3378ZM207.622 61.3105C206.919 61.3105 206.567 60.7773 206.567 59.7109C206.567 59.6406 206.561 59.4414 206.549 59.1132C206.444 59.2421 206.327 59.3828 206.198 59.5351C205.143 60.7304 203.995 61.3281 202.753 61.3281C201.756 61.3281 200.93 61.0117 200.274 60.3789C199.594 59.7226 199.255 58.8847 199.255 57.8652C199.255 56.4472 199.805 55.3046 200.907 54.4375C201.399 54.0507 201.95 53.7578 202.559 53.5585C203.18 53.3593 203.872 53.2597 204.633 53.2597C205.266 53.2597 205.887 53.3652 206.497 53.5761V51.7128C206.497 50.6816 206.28 49.9082 205.846 49.3925C205.424 48.8769 204.985 48.6191 204.528 48.6191C204.071 48.6191 203.696 48.6777 203.403 48.7949C203.122 48.9121 202.87 49.082 202.647 49.3046C202.155 49.7851 201.874 50.3828 201.803 51.0976C201.839 51.4726 201.762 51.7363 201.575 51.8886C201.387 52.0293 201.182 52.0996 200.96 52.0996C200.327 52.0996 200.022 51.6777 200.046 50.8339C200.069 49.955 200.514 49.1464 201.381 48.4082C202.272 47.6464 203.268 47.2656 204.37 47.2656C206.01 47.2656 207.118 48.08 207.692 49.7089C207.891 50.2949 207.991 50.9394 207.991 51.6425V53.4531L207.973 56.4062V57.9707C207.973 58.6738 208.055 59.2421 208.219 59.6757C208.395 60.1093 208.483 60.4199 208.483 60.6074C208.483 60.7832 208.395 60.9414 208.219 61.082C208.044 61.2343 207.844 61.3105 207.622 61.3105ZM230.772 40.4804C230.796 41.2539 230.532 41.6406 229.981 41.6406C229.747 41.6406 229.536 41.5585 229.348 41.3945C229.161 41.2187 229.067 40.9609 229.067 40.621C229.067 36.9414 228.282 34.7968 226.712 34.1875C226.219 34 225.575 33.9355 224.778 33.9941C223.993 34.0527 223.26 34.416 222.581 35.0839C221.913 35.7402 221.368 36.625 220.946 37.7382C220.149 39.8242 219.751 42.7187 219.751 46.4218C219.751 54.2734 221.04 58.5976 223.618 59.3945C224.051 59.5234 224.503 59.5878 224.971 59.5878C227.245 59.5878 228.633 57.4492 229.137 53.1718C229.29 51.789 229.36 50.7988 229.348 50.2011C228.305 50.1425 227.438 50.1543 226.747 50.2363C225.985 50.33 225.464 50.3769 225.182 50.3769C224.901 50.3769 224.672 50.2773 224.497 50.0781C224.333 49.8789 224.251 49.6621 224.251 49.4277C224.251 49.1816 224.339 48.9648 224.514 48.7773C224.69 48.5898 224.96 48.5253 225.323 48.5839C225.698 48.6308 226.067 48.6543 226.43 48.6543H227.45C228.059 48.6543 228.522 48.6308 228.839 48.5839C229.389 48.5019 229.799 48.4609 230.069 48.4609C230.678 48.4609 230.983 48.8066 230.983 49.498C230.983 53.1894 230.438 56.0839 229.348 58.1816C228.235 60.291 226.723 61.3457 224.813 61.3457C222.505 61.3457 220.799 60.1328 219.698 57.707C218.585 55.2343 218.028 51.3613 218.028 46.0878C218.028 37.1582 220.401 32.5585 225.147 32.289C228.897 32.0898 230.772 34.8203 230.772 40.4804ZM241.987 53.3476C242.01 51.3085 241.583 49.914 240.704 49.164C240.352 48.8476 239.924 48.6894 239.421 48.6894C238.917 48.6894 238.501 48.7832 238.172 48.9707C237.844 49.1582 237.551 49.4101 237.294 49.7265C237.047 50.0429 236.837 50.4062 236.661 50.8164C236.497 51.2148 236.362 51.625 236.256 52.0468C236.151 52.4921 236.075 52.9316 236.028 53.3652L238.436 53.4707C240.006 53.4707 241.19 53.4296 241.987 53.3476ZM235.958 54.8769C235.981 56.4941 236.274 57.7304 236.837 58.5859C237.446 59.5 238.307 59.957 239.421 59.957C240.44 59.957 241.184 59.4531 241.653 58.4453C241.946 57.789 242.309 57.4609 242.743 57.4609C242.942 57.4609 243.106 57.5253 243.235 57.6543C243.376 57.7832 243.44 58.0117 243.428 58.3398C243.417 58.6562 243.299 59.0019 243.077 59.3769C242.866 59.7519 242.567 60.0859 242.18 60.3789C241.337 61.0351 240.323 61.3632 239.139 61.3632C237.862 61.3632 236.76 60.8183 235.835 59.7285C234.862 58.58 234.376 57.2148 234.376 55.6328C234.376 54.0507 234.51 52.7675 234.78 51.7832C235.061 50.7871 235.43 49.9609 235.887 49.3046C236.778 47.9804 237.891 47.3183 239.227 47.3183C240.938 47.3183 242.139 47.9921 242.831 49.3398C243.311 50.2773 243.569 51.6543 243.604 53.4707C243.616 53.9863 243.534 54.332 243.358 54.5078C243.182 54.6835 242.825 54.7714 242.286 54.7714L235.958 54.8769ZM252.797 49.1113C252.411 48.83 251.954 48.6894 251.426 48.6894C250.911 48.6894 250.436 48.8359 250.003 49.1289C249.581 49.4101 249.223 49.8085 248.93 50.3242C248.333 51.3554 248.034 52.7734 248.034 54.5781C248.034 56.371 248.321 57.6953 248.895 58.5507C249.469 59.4062 250.237 59.8339 251.198 59.8339C252.253 59.8339 253.096 59.2304 253.729 58.0234C254.292 56.9453 254.573 55.621 254.573 54.0507C254.573 51.6367 253.981 49.9902 252.797 49.1113ZM251.18 61.3281C250.512 61.3398 249.885 61.205 249.299 60.9238C248.725 60.6308 248.227 60.1796 247.805 59.5703C246.88 58.2812 246.417 56.4472 246.417 54.0683C246.417 51.9355 246.915 50.2539 247.911 49.0234C248.848 47.8515 250.09 47.2656 251.637 47.2656C252.938 47.2656 254.016 47.8281 254.872 48.9531C255.751 50.1484 256.19 51.789 256.19 53.875C256.19 56.1953 255.68 58.0468 254.661 59.4296C253.747 60.6718 252.587 61.3046 251.18 61.3281ZM267.124 48.2675C267.124 48.9003 266.807 49.2636 266.174 49.3574C265.401 49.5097 264.528 50.1718 263.555 51.3437C262.512 52.6093 261.926 53.8574 261.797 55.0878C261.751 55.6269 261.727 56.1191 261.727 56.5644C261.727 57.6308 261.774 58.75 261.868 59.9218C261.891 60.3085 261.792 60.6015 261.569 60.8007C261.358 61 261.124 61.0996 260.866 61.0996C260.62 61.0996 260.403 61.0117 260.215 60.8359C260.028 60.6484 259.952 60.373 259.987 60.0097C260.022 59.6347 260.051 59.207 260.075 58.7265C260.098 58.2343 260.122 57.7187 260.145 57.1796C260.169 56.2656 260.18 55.246 260.18 54.121C260.18 52.2226 260.157 50.8164 260.11 49.9023C260.063 48.9765 260.069 48.4433 260.128 48.3027C260.186 48.1621 260.262 48.0507 260.356 47.9687C260.555 47.7812 260.772 47.6875 261.006 47.6875C261.253 47.6875 261.469 47.7753 261.657 47.9511C261.856 48.1269 261.944 48.3554 261.921 48.6367C261.909 48.9062 261.885 49.1757 261.85 49.4453C261.827 49.7031 261.797 50.0253 261.762 50.4121C261.692 51.0332 261.628 51.6953 261.569 52.3984C262.049 51.1914 262.735 50.0781 263.626 49.0585C264.622 47.9453 265.489 47.3886 266.227 47.3886C266.544 47.3886 266.772 47.4765 266.913 47.6523C267.053 47.8281 267.124 48.0332 267.124 48.2675ZM271.641 60.2558C271.805 60.2675 272.11 60.2734 272.555 60.2734H273.54C275.626 60.2734 277.067 61.1406 277.864 62.875C278.133 63.4375 278.268 64.0878 278.268 64.8261C278.268 65.5644 278.157 66.2207 277.934 66.7949C277.723 67.3691 277.407 67.8671 276.985 68.289C276.094 69.1445 274.805 69.5722 273.118 69.5722C271.77 69.5722 270.68 69.2265 269.848 68.5351C269.005 67.8203 268.583 66.8242 268.583 65.5468C268.583 64.4101 268.887 63.3847 269.497 62.4707C269.708 62.1425 269.93 61.873 270.165 61.6621C269.684 61.5449 269.297 61.2929 269.005 60.9062C268.63 60.414 268.442 59.9043 268.442 59.3769C268.442 58.8496 268.495 58.416 268.6 58.0761C268.706 57.7246 268.852 57.4023 269.04 57.1093C269.333 56.6523 269.661 56.2714 270.024 55.9668C269.462 55.5683 269.016 55.0234 268.688 54.332C268.43 53.7812 268.301 53.1191 268.301 52.3457C268.301 51.5605 268.43 50.8515 268.688 50.2187C268.958 49.5742 269.315 49.041 269.76 48.6191C270.206 48.1855 270.715 47.8574 271.29 47.6347C271.864 47.4121 272.485 47.2949 273.153 47.2832C273.622 47.2714 274.079 47.3183 274.524 47.4238C274.583 46.6386 274.899 45.8007 275.473 44.9101C276.294 43.6562 277.231 43.0293 278.286 43.0293C278.837 43.0293 279.112 43.3164 279.112 43.8906C279.112 44.2421 278.854 44.541 278.339 44.7871C277.53 44.9628 276.868 45.3906 276.352 46.0703C275.942 46.5976 275.714 47.2011 275.667 47.8808C275.983 48.0566 276.27 48.2734 276.528 48.5312C277.395 49.3984 277.829 50.623 277.829 52.205C277.829 53.4707 277.419 54.5253 276.598 55.3691C275.684 56.3066 274.483 56.7753 272.995 56.7753C272.233 56.7753 271.559 56.6699 270.973 56.4589C270.739 56.7636 270.534 57.1679 270.358 57.6718C270.124 58.3398 270.006 58.8203 270.006 59.1132C270.006 59.875 270.551 60.2558 271.641 60.2558ZM269.883 52.3281C269.883 53.289 270.159 54.0507 270.71 54.6132C271.272 55.164 271.934 55.4394 272.696 55.4394C273.469 55.4394 274.061 55.3457 274.471 55.1582C274.893 54.9707 275.239 54.7187 275.508 54.4023C276.047 53.7929 276.317 52.9609 276.317 51.9062C276.317 50.4062 275.661 49.4218 274.348 48.9531C273.962 48.8125 273.51 48.7421 272.995 48.7421C272.491 48.7421 272.04 48.8535 271.641 49.0761C271.243 49.2871 270.915 49.5625 270.657 49.9023C270.141 50.5585 269.883 51.3671 269.883 52.3281ZM271.483 61.7851C271.307 61.8906 271.143 62.0664 270.991 62.3125C270.44 63.1562 270.165 64.0996 270.165 65.1425C270.165 67.1464 271.307 68.1484 273.592 68.1484C275.667 68.1484 276.704 67.082 276.704 64.9492C276.704 64.0117 276.458 63.2382 275.965 62.6289C275.52 62.0664 275.005 61.7793 274.419 61.7675C273.844 61.7675 273.223 61.7734 272.555 61.7851C272.192 61.7968 271.835 61.7968 271.483 61.7851ZM283.805 42.3085C283.887 42.496 283.917 42.7246 283.893 42.9941C283.881 43.2519 283.823 43.4746 283.717 43.6621C283.612 43.8496 283.489 44.0019 283.348 44.1191C283.079 44.33 282.803 44.4355 282.522 44.4355C282.241 44.4355 282.018 44.4062 281.854 44.3476C281.69 44.2773 281.544 44.1835 281.415 44.0664C281.11 43.7851 280.958 43.416 280.958 42.9589C280.958 42.5019 281.075 42.1738 281.309 41.9746C281.696 41.6347 282.083 41.4648 282.469 41.4648C283.102 41.4648 283.547 41.746 283.805 42.3085ZM283.243 48.9179C283.184 50.1367 283.126 51.3378 283.067 52.5214C283.008 53.705 282.979 54.7714 282.979 55.7207C282.979 56.6699 283.008 57.6543 283.067 58.6738C283.126 59.6816 283.126 60.2617 283.067 60.414C283.02 60.5546 282.95 60.6718 282.856 60.7656C282.657 60.9648 282.44 61.0644 282.206 61.0644C281.971 61.0644 281.749 60.9765 281.538 60.8007C281.339 60.625 281.262 60.2675 281.309 59.7285C281.438 58.2402 281.503 56.7343 281.503 55.2109C281.503 53.6875 281.479 52.457 281.432 51.5195C281.397 50.5703 281.368 49.8554 281.344 49.375C281.333 48.8945 281.356 48.5839 281.415 48.4433C281.473 48.3027 281.555 48.1914 281.661 48.1093C281.86 47.9218 282.083 47.8281 282.329 47.8281C282.575 47.8281 282.792 47.916 282.979 48.0918C283.167 48.2675 283.255 48.5429 283.243 48.9179ZM294.721 53.3476C294.745 51.3085 294.317 49.914 293.438 49.164C293.087 48.8476 292.659 48.6894 292.155 48.6894C291.651 48.6894 291.235 48.7832 290.907 48.9707C290.579 49.1582 290.286 49.4101 290.028 49.7265C289.782 50.0429 289.571 50.4062 289.395 50.8164C289.231 51.2148 289.096 51.625 288.991 52.0468C288.885 52.4921 288.809 52.9316 288.762 53.3652L291.171 53.4707C292.741 53.4707 293.924 53.4296 294.721 53.3476ZM288.692 54.8769C288.715 56.4941 289.008 57.7304 289.571 58.5859C290.18 59.5 291.042 59.957 292.155 59.957C293.174 59.957 293.919 59.4531 294.387 58.4453C294.68 57.789 295.044 57.4609 295.477 57.4609C295.676 57.4609 295.84 57.5253 295.969 57.6543C296.11 57.7832 296.174 58.0117 296.163 58.3398C296.151 58.6562 296.034 59.0019 295.811 59.3769C295.6 59.7519 295.301 60.0859 294.915 60.3789C294.071 61.0351 293.057 61.3632 291.874 61.3632C290.596 61.3632 289.495 60.8183 288.569 59.7285C287.596 58.58 287.11 57.2148 287.11 55.6328C287.11 54.0507 287.245 52.7675 287.514 51.7832C287.796 50.7871 288.165 49.9609 288.622 49.3046C289.512 47.9804 290.626 47.3183 291.962 47.3183C293.672 47.3183 294.874 47.9921 295.565 49.3398C296.046 50.2773 296.303 51.6543 296.339 53.4707C296.35 53.9863 296.268 54.332 296.092 54.5078C295.917 54.6835 295.559 54.7714 295.02 54.7714L288.692 54.8769ZM304.477 60.414C304.348 60.8125 304.044 61.0117 303.563 61.0117C303.094 61.0117 302.807 60.8476 302.702 60.5195C302.385 59.5585 302.081 58.6035 301.788 57.6543C301.495 56.705 301.196 55.7734 300.891 54.8593C300.2 52.7031 299.526 50.9218 298.87 49.5156C298.717 49.1523 298.641 48.83 298.641 48.5488C298.641 48.2558 298.723 48.0214 298.887 47.8457C299.063 47.6699 299.256 47.582 299.467 47.582C299.69 47.582 299.919 47.664 300.153 47.8281C300.387 47.9804 300.604 48.3906 300.803 49.0585C301.003 49.7148 301.255 50.6054 301.559 51.7304C301.876 52.8437 302.18 53.9218 302.473 54.9648C302.977 56.7929 303.358 58.1113 303.616 58.9199C303.78 58.3222 303.95 57.7539 304.126 57.2148C304.36 56.4648 304.606 55.6796 304.864 54.8593C305.485 52.8671 306.03 50.7812 306.499 48.6015C306.651 47.9453 306.991 47.6171 307.518 47.6171C307.753 47.6171 307.952 47.6933 308.116 47.8457C308.292 47.9863 308.38 48.1679 308.38 48.3906C308.38 48.7187 308.262 49.1875 308.028 49.7968C307.794 50.4062 307.512 51.1679 307.184 52.082C306.856 52.996 306.534 53.9218 306.217 54.8593C305.491 57.0156 304.911 58.8671 304.477 60.414ZM317.766 57.3378C317.755 56.6933 317.755 55.9023 317.766 54.9648C317.262 54.789 316.624 54.7011 315.85 54.7011C314.807 54.7011 313.952 54.9531 313.284 55.457C312.956 55.7148 312.692 56.0312 312.493 56.4062C312.294 56.7695 312.194 57.2441 312.194 57.83C312.194 58.4043 312.393 58.8847 312.792 59.2714C313.19 59.6582 313.776 59.8515 314.549 59.8515C315.323 59.8515 316.184 59.3242 317.133 58.2695C317.403 57.9765 317.614 57.666 317.766 57.3378ZM318.891 61.3105C318.188 61.3105 317.837 60.7773 317.837 59.7109C317.837 59.6406 317.831 59.4414 317.819 59.1132C317.714 59.2421 317.596 59.3828 317.467 59.5351C316.413 60.7304 315.264 61.3281 314.022 61.3281C313.026 61.3281 312.2 61.0117 311.544 60.3789C310.864 59.7226 310.524 58.8847 310.524 57.8652C310.524 56.4472 311.075 55.3046 312.176 54.4375C312.669 54.0507 313.219 53.7578 313.829 53.5585C314.45 53.3593 315.141 53.2597 315.903 53.2597C316.536 53.2597 317.157 53.3652 317.766 53.5761V51.7128C317.766 50.6816 317.549 49.9082 317.116 49.3925C316.694 48.8769 316.255 48.6191 315.797 48.6191C315.34 48.6191 314.965 48.6777 314.672 48.7949C314.391 48.9121 314.139 49.082 313.917 49.3046C313.424 49.7851 313.143 50.3828 313.073 51.0976C313.108 51.4726 313.032 51.7363 312.844 51.8886C312.657 52.0293 312.452 52.0996 312.229 52.0996C311.596 52.0996 311.292 51.6777 311.315 50.8339C311.339 49.955 311.784 49.1464 312.651 48.4082C313.542 47.6464 314.538 47.2656 315.639 47.2656C317.28 47.2656 318.387 48.08 318.962 49.7089C319.161 50.2949 319.26 50.9394 319.26 51.6425V53.4531L319.243 56.4062V57.9707C319.243 58.6738 319.325 59.2421 319.489 59.6757C319.665 60.1093 319.753 60.4199 319.753 60.6074C319.753 60.7832 319.665 60.9414 319.489 61.082C319.313 61.2343 319.114 61.3105 318.891 61.3105Z" fill="#666666"/>
<path d="M69.9037 49.6185C70.4157 66.8387 53.0523 74.8876 36.2433 75.3885C19.434 75.8875 5.3927 62.3328 4.88195 45.1144C4.36994 27.8942 17.5804 13.531 34.3906 13.031C51.1988 12.5312 69.3901 32.4015 69.9037 49.6185Z" fill="#990099"/>
<path d="M118.033 71.8202C104.126 81.9838 87.6661 72.2237 77.7418 58.6462C67.8199 45.0714 71.0485 25.8256 84.9574 15.6577C98.8658 5.49296 118.183 8.25788 128.108 21.8354C138.029 35.4123 131.94 61.6526 118.033 71.8202Z" fill="#CCCCCC"/>
<path d="M102.308 94.3016C99.1953 86.7915 105.501 80.3339 112.831 77.2952C120.158 74.2598 128.623 77.8811 131.735 85.3873C134.847 92.8955 131.43 101.445 124.101 104.483C116.772 107.523 105.42 101.807 102.308 94.3016Z" fill="#FFAA00"/>
<path d="M65.3817 126.842C50.0859 126.488 43.7642 110.715 44.1084 95.7858C44.4532 80.8545 57.1302 69.0356 72.4249 69.3889C87.7205 69.7411 99.8386 82.1305 99.4947 97.0617C99.149 111.994 80.6774 127.196 65.3817 126.842Z" fill="#EEEEEE"/>
</svg>
