<svg width="32" height="32" viewBox="0 0 32 32" fill="none" xmlns="http://www.w3.org/2000/svg">
<mask id="mask0_24_36" style="mask-type:alpha" maskUnits="userSpaceOnUse" x="0" y="0" width="32" height="32">
<path fill-rule="evenodd" clip-rule="evenodd" d="M10.0825 31.8341C1.39491 30.48 -0.995056 21.1715 0.349234 12.8383C1.69367 4.50546 9.82637 -1.153 18.5141 0.199858C27.202 1.55387 33.1546 9.40569 31.8104 17.7383C30.4656 26.0716 18.7704 33.1869 10.0825 31.8341Z" fill="#EEEEEE"/>
</mask>
<g mask="url(#mask0_24_36)">
<path d="M-5 9.3333H37.6665V22.6666H-5V9.3333Z" fill="#CC2B1D"/>
<path d="M0.688876 0H31.9777C35.1179 0 37.6665 2.38933 37.6665 5.33332V10.6666H-5V5.33332C-5 2.38933 -2.45138 0 0.688876 0Z" fill="black"/>
<path d="M31.9777 31.9999L0.688867 31.9999C-2.45139 31.9999 -5 29.6106 -5 26.6666V21.3333L37.6665 21.3333V26.6666C37.6665 29.6106 35.1179 31.9999 31.9777 31.9999Z" fill="#F8D147"/>
</g>
</svg>
