<svg width="32" height="32" viewBox="0 0 32 32" fill="none" xmlns="http://www.w3.org/2000/svg">
<mask id="mask0_24_51" style="mask-type:alpha" maskUnits="userSpaceOnUse" x="0" y="0" width="32" height="32">
<path fill-rule="evenodd" clip-rule="evenodd" d="M10.0825 31.8341C1.39491 30.48 -0.995056 21.1715 0.349234 12.8383C1.69367 4.50546 9.82637 -1.153 18.5141 0.199858C27.202 1.55387 33.1546 9.40569 31.8104 17.7383C30.4656 26.0716 18.7704 33.1869 10.0825 31.8341Z" fill="#EEEEEE"/>
</mask>
<g mask="url(#mask0_24_51)">
<path d="M-5 9.3333H37.6665V22.6666H-5V9.3333Z" fill="#CC2B1D"/>
<path d="M0.688872 0H31.9777C35.1179 0 37.6665 2.38933 37.6665 5.33332V10.6666H-5V5.33332C-5 2.38933 -2.45139 0 0.688872 0Z" fill="black"/>
<path d="M31.9777 31.9999L0.688867 31.9999C-2.45139 31.9999 -5 29.6106 -5 26.6666V21.3333L37.6665 21.3333V26.6666C37.6665 29.6106 35.1179 31.9999 31.9777 31.9999Z" fill="#F8D147"/>
<path d="M30.6667 0H1.33333C-1.61219 0 -4 2.38781 -4 5.33333V26.6667C-4 29.6122 -1.61219 32 1.33333 32H30.6667C33.6122 32 36 29.6122 36 26.6667V5.33333C36 2.38781 33.6122 0 30.6667 0Z" fill="#071B65"/>
<path d="M1.468 0H1.33333C-1.308 0 -3.48667 1.92533 -3.91067 4.44533L30.532 32H30.6667C33.308 32 35.4867 30.0747 35.9107 27.5547L1.468 0Z" fill="white"/>
<path d="M24.3333 20H21L34.2453 30.596C34.7613 30.1253 35.184 29.56 35.484 28.92L24.3333 20Z" fill="#B92932"/>
<path d="M-3.484 3.07867L7.66667 12H11L-2.24533 1.40401C-2.76133 1.87467 -3.184 2.43867 -3.484 3.07867Z" fill="#B92932"/>
<path d="M1.33333 32H1.468L35.9107 4.44533C35.4867 1.924 33.308 0 30.6667 0H30.532L-3.91067 27.5547C-3.48667 30.076 -1.308 32 1.33333 32Z" fill="white"/>
<path d="M20 0H12V32H20V0Z" fill="white"/>
<path d="M36 12H-4V20H36V12Z" fill="white"/>
<path d="M18.6667 0H13.3333V32H18.6667V0Z" fill="#B92932"/>
<path d="M36 18.6667V13.3333L-4 13.3333V18.6667L36 18.6667Z" fill="#B92932"/>
<path d="M32.296 0.279999L20 10.1147V12H21L34.2573 1.41333C33.6987 0.901332 33.0333 0.518665 32.296 0.279999Z" fill="#B92932"/>
<path d="M-2.22933 30.6093C-1.67733 31.108 -1.024 31.484 -0.299999 31.7187L12 21.8787V20.0013H11L-2.22933 30.6093Z" fill="#B92932"/>
</g>
</svg>
