<svg width="120" height="120" viewBox="0 0 155 155" fill="none" xmlns="http://www.w3.org/2000/svg">
<circle cx="77.5" cy="77.5" r="77.5" fill="white"/>
<path d="M78.3794 19C76.4395 19 74.8875 20.5724 74.8875 22.5123V86.286L59.0411 70.4396C57.6729 69.0714 55.4471 69.0714 54.0789 70.4396C52.7107 71.8077 52.7107 74.0336 54.0789 75.4018L75.9085 97.2314C76.562 97.8849 77.4605 98.2524 78.3794 98.2524C79.3188 98.2524 80.1968 97.8849 80.8503 97.2314L102.68 75.3813C104.048 74.0132 104.048 71.7873 102.68 70.4191C101.312 69.051 99.0859 69.051 97.7177 70.4191L81.8713 86.2655V22.5123C81.8918 20.5724 80.3194 19 78.3794 19Z" fill="#666666"/>
<path d="M121.446 115.508C121.446 113.568 119.874 111.996 117.934 111.996H38.8042C36.8643 111.996 35.2919 113.568 35.2919 115.508C35.2919 117.448 36.8643 119 38.8042 119H117.955C119.895 119.02 121.446 117.448 121.446 115.508Z" fill="#666666"/>
</svg>
